<svg xmlns="http://www.w3.org/2000/svg" width="54" height="54" viewBox="0 0 54 54"><path d="M46.08,54H7.92A7.943,7.943,0,0,1,0,46.08V7.92A7.943,7.943,0,0,1,7.92,0H46.08A7.943,7.943,0,0,1,54,7.92V46.08A7.943,7.943,0,0,1,46.08,54Z" fill="rgba(255,255,255,0)"/><g transform="translate(11.348 10.44)"><path d="M163.092,172.43c.808-.272,2.561.376,3.776,1.606,1.221,1.078,1.311,1.937.414,1.916a5.387,5.387,0,0,1-1.219-.489c-.59-.348-1.175-.724-1.748-1.132-.324-.231-2.141-1.592-1.224-1.9Zm24.589-3.04c-.986,1.165-2.109,1.468-2.536.5-.585-1.186-.01-3.292,1.312-4.542,1.157-1.22,2.3-1.062,2.57.152a7.127,7.127,0,0,1-1.346,3.891Zm-18.3-.467a2.679,2.679,0,0,0-.455,4.246,4.6,4.6,0,0,0,4.914.884c2.353-1.279.705-2.969,3.028-4.449,2.337-1.608,3.279.629,5.76-1.217,2.175-1.815.914-3.727,2.826-5.389,1.623-1.572,2.244.719,3.589-.982a4.79,4.79,0,0,0,.455-2.384c-.077-1.21-1.3-4.9-3.067-3.206-1.793,1.533-.125,3.466-1.85,5.007-2.03,1.686-3.313-.831-5.823,1.038-2.787,2.007-.615,3.97-3.015,5.634-2.4,1.566-3.87-.812-6.362.818Zm8.9-16.34c2.221-1.326,3.7.914,5.422-.2,1.347-.829-.462-2.542.794-3.018.59-.058,1.491.853,1.957,1.284q.418.5.8,1.043.138.2.269.393c.226.5.846,1.647.541,2.116-.914.933-2.005-1.245-3.278-.325-1.631,1.182-.042,3.333-2.042,4.921a3.686,3.686,0,0,1-5.2-1.062,3.545,3.545,0,0,1,.732-5.149Zm-20.661,9.84a4.227,4.227,0,0,1,.008-.616c.43-1.335.882.66,1.846-.684,1.343-1.5.232-3.118,1.95-4.988,1.988-1.832,2.889.292,5.064-1.432,2.276-1.654.468-3.168,3.045-4.886a4.125,4.125,0,0,1,5.066.536,3.229,3.229,0,0,1-.908,4.825c-2.751,1.9-3.888-.645-6.212,1.034-2.21,1.708-.631,3.867-2.919,5.653-2.089,1.746-3.01-.729-4.439.712-1.053,1.278-.006,3.26-.854,4.263-.3.566-.72-.3-.876-.583a16.263,16.263,0,0,1-.772-3.834Zm1.251-7.69c.459-.8.471-.083,1.512-1.448,1.488-1.587.958-2.227,2.72-3.914,1.9-1.451,2.271-.553,4.295-1.853,2.029-1.075.77-1.4,2.916-2.225a13.3,13.3,0,0,1,2.771-.293c.341-.011,1.849.263,1.7,1-.01.035-.02.07-.032.106a.93.93,0,0,0-.032.095c-.122.334-.373.706-1.286,1.074-2.429,1.237-3.267-.2-5.365.96-2.091,1.358-.922,2.691-3.221,4.393-2.228,1.879-2.636,0-4.228,1.609a7.3,7.3,0,0,0-1.325,3.444c-.153.642-1.613,3.268-1.588,1.322a16.426,16.426,0,0,1,1.162-4.27Zm2.369,10.369c-2.02,2.013,1.392,7.187,3.971,5.772,1.294-.767,1.448-2.825.227-4.527C164.285,164.621,162.36,164.1,161.245,165.1Z" transform="translate(-157.617 -145)" fill="#fff" fill-rule="evenodd" opacity="0.4"/><path d="M307.2,164.309c-1.292.688-3.484.15-4.734-1.216-1.213-1.2-.989-2.468.332-2.841a6.247,6.247,0,0,1,4.108,1.234c1.191,1.045,1.4,2.3.294,2.823Zm-12.6,26.2c-.374-1.27,5.043-.459,6.116-.871,2.107-1.036.277-2.189,2.882-3.748,1.687-1.125,3.726-1.053,4.447.055.567.9-.208,2.26-1.643,3.172-2.208,1.151-2.783.266-4.8,1.193-1.927.659-.668,1.064-2.48,1.285a16.626,16.626,0,0,1-2.837-.264,3.068,3.068,0,0,1-1.684-.823Zm4.278-10.868a4.034,4.034,0,0,1-5.542-1.027,4.085,4.085,0,0,1,.894-5.572,4.005,4.005,0,0,1,5.618.94A4.049,4.049,0,0,1,298.883,179.637Z" transform="translate(-282.902 -159.12)" fill="#fff" fill-rule="evenodd"/></g></svg>