<?xml version="1.0" encoding="utf-8"?>
<!-- Generator: Adobe Illustrator 25.2.0, SVG Export Plug-In . SVG Version: 6.00 Build 0)  -->
<svg version="1.1" id="Ebene_1" xmlns="http://www.w3.org/2000/svg" xmlns:xlink="http://www.w3.org/1999/xlink" x="0px" y="0px"
	 viewBox="0 0 500 500" style="enable-background:new 0 0 500 500;" xml:space="preserve">
<style type="text/css">
	.st0{opacity:0.5;fill:#95ABBF;enable-background:new    ;}
	.st1{fill:#F44257;}
	.st2{fill:#4D90F4;}
	.st3{fill:#CC213E;}
	.st4{fill:#FFAC2F;}
	.st5{display:none;}
	.st6{display:inline;opacity:0;fill:#3B80FF;}
	.st7{display:inline;opacity:0.25;fill:#3B80FF;}
	.st8{display:inline;fill:#3B80FF;}
	.st9{display:inline;}
	.st10{fill:#3B80FF;}
	.st11{fill:#FFFFFF;}
	.st12{fill:#1765F5;}
	.st13{display:none;fill:#FFFFFF;}
	.st14{opacity:0;}
	.st15{opacity:0.25;}
	.st16{display:none;fill:#EA9126;}
	.st17{fill:#ED9726;}
	.st18{fill:#35495F;}
	.st19{fill:#3EBA70;}
	.st20{opacity:0.5;fill:#B9C0C9;enable-background:new    ;}
	.st21{fill:#C9791B;}
</style>
<g id="Language" class="st5">
	<rect class="st6" width="500" height="500"/>
	<path class="st7" d="M206.2811,192.9572c0-21.9344,17.7812-39.7157,39.7157-39.7157h44.0535V94.424
		c0-20.2893-16.4477-36.737-36.737-36.737H55.3259c-20.2893,0-36.737,16.4477-36.737,36.737v159.1799
		c0,20.2893,16.4477,36.737,36.737,36.737h11.6636v40.6101c0,11.9571,14.4566,17.9452,22.9114,9.4902l50.1003-50.1003h66.2799
		V192.9572z"/>
	<path class="st8" d="M206.2811,277.9297H134.86l-53.7354,53.7354c-0.2123,0.2123-0.4761,0.478-1.1005,0.2191
		c-0.6235-0.2584-0.6235-0.6327-0.6235-0.9333v-53.0213H55.3259C41.9122,277.9297,31,267.0171,31,253.6038V94.424
		c0-13.4133,10.9121-24.3259,24.3259-24.3259h197.9869c13.4137,0,24.3259,10.9126,24.3259,24.3259v58.8175h24.8223V94.424
		c0-27.1004-22.0482-49.1482-49.1482-49.1482H55.3259c-27.0999,0-49.1482,22.0477-49.1482,49.1482v159.1798
		c0,26.8508,21.6439,48.7414,48.4006,49.1423v28.2048c0,10.4855,6.2599,19.8535,15.9464,23.8663
		c3.2153,1.3318,6.5789,1.979,9.9124,1.979c6.7078-0.0005,13.2857-2.6257,18.2395-7.579l46.4652-46.4652h61.1392V277.9297z"/>
	<g class="st9">
		<path class="st10" d="M180.304,204.6151h-48.1725l-7.9725,23.0465H98.6876l43.4931-121.1285h28.2465l43.4957,121.1285h-25.6465
			L180.304,204.6151z M156.2164,134.6071l-17.5013,50.5999h35.0053L156.2164,134.6071z"/>
	</g>
	<path class="st7" d="M441.2843,153.2415H245.9968c-21.9345,0-39.7157,17.7813-39.7157,39.7157v160.5406
		c0,21.9344,17.7812,39.7157,39.7157,39.7157h99.512l50.3832,50.3831c8.4548,8.4549,22.9114,2.4668,22.9114-9.4902v-40.8929h22.4809
		c21.9345,0,39.7157-17.7813,39.7157-39.7158V192.9572C481,171.0228,463.2188,153.2415,441.2843,153.2415z"/>
	<path class="st8" d="M405.3555,460.0405c-6.7324,0-13.3311-2.6338-18.3027-7.605l-46.7217-46.7222h-94.334
		c-28.792,0-52.2158-23.4238-52.2158-52.2158V192.957c0-28.7915,23.4238-52.2153,52.2158-52.2153h195.2871
		c28.792,0,52.2158,23.4238,52.2158,52.2153v160.5405c0,28.792-23.4238,52.2158-52.2158,52.2158h-9.9805v28.3931
		c0,10.521-6.2812,19.9214-16.001,23.9478C412.0762,459.3906,408.6992,460.0405,405.3555,460.0405z M245.9971,165.7417
		c-15.0068,0-27.2158,12.2085-27.2158,27.2153v160.5405c0,15.0068,12.209,27.2158,27.2158,27.2158h104.6895l54.0439,54.0444
		c0.2139,0.2134,0.4326,0.4351,1.0049,0.1997c0.5684-0.2358,0.5684-0.5483,0.5684-0.8511v-53.3931h34.9805
		c15.0068,0,27.2158-12.209,27.2158-27.2158V192.957c0-15.0068-12.209-27.2153-27.2158-27.2153H245.9971z"/>
	<g class="st9">
		<path class="st10" d="M402.1017,343.1214c-19.2621-7.4821-41.3894-20.2175-56.6718-33.5901
			c-16.0788,14.168-35.1819,25.7888-57.9464,35.8181c-3.9796-6.3677-7.9593-12.8944-11.6209-19.2621
			c25.6298-10.0292,40.5941-19.8983,55.0802-31.9974c-12.7353-15.2824-24.0381-31.0421-31.5193-51.7367h-18.1487v-19.1035h52.215
			v-20.058h21.4911v20.0579h53.3294v19.1035H390.958c-7.3221,20.5356-17.6694,37.7278-30.724,52.3741
			c14.9643,12.4162,36.1372,23.5598,53.1704,27.8577L402.1017,343.1214z M345.748,279.7627
			c8.2775-9.2329,16.0777-20.3765,22.6056-37.4097h-46.6437C327.6003,257.7945,336.8332,269.5744,345.748,279.7627z"/>
	</g>
</g>
<g id="Ebene_1_4_">
	<rect class="st14" width="500" height="500"/>
	<path class="st15" d="M469.3992,154.0144H227.7136c-11.0457,0-20,8.9543-20,20v206.6899c0,8.2843,6.7157,15,15,15H347.938
		l65.2838,65.2837c3.1498,3.1498,8.5355,0.919,8.5355-3.5355v-61.7482h47.6418c8.2843,0,15-6.7157,15-15V169.0144
		C484.3992,160.7301,477.6834,154.0144,469.3992,154.0144z"/>
	<path class="st15" d="M207.7136,174.0144c0-11.0457,8.9543-20,20-20h64.3689V72.7759c0-8.2843-6.7157-15-15-15H33.6777
		c-8.2843,0-15,6.7157-15,15v204.3194c0,8.2843,6.7157,15,15,15h33.7471v61.4634c0,4.4545,5.3857,6.6853,8.5355,3.5355
		l64.9989-64.999h66.7544V174.0144z"/>
	<g>
		<path d="M181.5505,205.7558h-48.5174l-8.0296,23.2115H99.3499l43.8045-121.9956h28.4487l43.8071,121.9956h-25.8301
			L181.5505,205.7558z M157.2905,135.2466l-17.6266,50.9621h35.2559L157.2905,135.2466z"/>
	</g>
	<g>
		<path d="M404.936,345.2536c-19.4-7.5357-41.6857-20.3622-57.0775-33.8306c-16.1939,14.2694-35.4337,25.9734-58.3612,36.0745
			c-4.0081-6.4133-8.0163-12.9867-11.7041-19.4c25.8133-10.101,40.8847-20.0408,55.4745-32.2265
			c-12.8265-15.3918-24.2102-31.2643-31.7449-52.1071h-18.2786v-19.2403h52.5888V204.322h21.6449v20.2015h53.7112v19.2403h-17.4765
			c-7.3745,20.6826-17.7959,37.9979-30.9439,52.749c15.0714,12.5051,36.3959,23.7285,53.551,28.0571L404.936,345.2536z
			 M348.1789,281.4413c8.3367-9.299,16.1928-20.5224,22.7674-37.6775h-46.9776
			C329.9013,259.3159,339.2003,271.1801,348.1789,281.4413z"/>
	</g>
	<path d="M416.7412,473.4604c-4.1553,0-8.2285-1.6255-11.2969-4.6938l-62.0635-62.0625h-120.667c-14.3369,0-26-11.6636-26-26
		V174.0146c0-17.0933,13.9062-31,31-31h241.6855c14.3369,0,26,11.6636,26,26v211.6895c0,14.3364-11.6631,26-26,26h-36.6416v50.7485
		c0,6.4941-3.877,12.2964-9.876,14.7817C420.8906,473.0591,418.8057,473.4604,416.7412,473.4604z M227.7139,165.0146
		c-4.9629,0-9,4.0376-9,9v206.6895c0,2.2056,1.7939,4,4,4h129.7803l58.2637,58.2637v-58.2637h58.6416c2.2061,0,4-1.7944,4-4
		V169.0146c0-2.2056-1.7939-4-4-4H227.7139z"/>
	<path d="M72.4414,369.5669c-2.0635,0-4.1475-0.4014-6.1387-1.2261c-6.001-2.4849-9.8779-8.2876-9.8779-14.7822v-50.4634H33.6777
		c-14.3369,0-26-11.6636-26-26V72.7759c0-14.3364,11.6631-26,26-26H277.082c14.3369,0,26,11.6636,26,26v92.2388h-80.3682
		c-2.2061,0-4,1.7944-4,4v134.0806h-73.1982l-61.7773,61.7773C80.6709,367.9404,76.5967,369.5664,72.4414,369.5669z
		 M33.6777,68.7759c-2.2061,0-4,1.7944-4,4v204.3193c0,2.2056,1.7939,4,4,4h44.7471v57.978l57.9775-57.978h60.3115V169.0146
		c0-14.3364,11.6631-26,26-26h58.3682V72.7759c0-2.2056-1.7939-4-4-4H33.6777z"/>
</g>
</svg>
