<?xml version="1.0" encoding="utf-8"?>
<!-- Generator: Adobe Illustrator 25.2.0, SVG Export Plug-In . SVG Version: 6.00 Build 0)  -->
<svg version="1.1" id="Ebene_1" xmlns="http://www.w3.org/2000/svg" xmlns:xlink="http://www.w3.org/1999/xlink" x="0px" y="0px"
	 viewBox="0 0 500 500" style="enable-background:new 0 0 500 500;" xml:space="preserve">
<style type="text/css">
	.st0{opacity:0.5;fill:#95ABBF;enable-background:new    ;}
	.st1{fill:#F44257;}
	.st2{fill:#4D90F4;}
	.st3{fill:#CC213E;}
	.st4{fill:#FFAC2F;}
	.st5{display:none;}
	.st6{display:inline;opacity:0;fill:#3B80FF;}
	.st7{display:inline;opacity:0.25;fill:#3B80FF;}
	.st8{display:inline;fill:#3B80FF;}
	.st9{display:inline;}
	.st10{fill:#3B80FF;}
	.st11{fill:#FFFFFF;}
	.st12{fill:#1765F5;}
	.st13{display:none;fill:#FFFFFF;}
	.st14{opacity:0;}
	.st15{opacity:0.25;}
	.st16{display:none;fill:#EA9126;}
	.st17{fill:#ED9726;}
	.st18{fill:#35495F;}
	.st19{fill:#3EBA70;}
	.st20{opacity:0.5;fill:#B9C0C9;enable-background:new    ;}
	.st21{fill:#C9791B;}
</style>
<g>
	<path class="st17" d="M444.3546,412.4307H58.6363c-12.1503,0-22-9.8497-22-22V117c0-12.1503,9.8497-22,22-22h385.7183
		c12.1502,0,22,9.8497,22,22v273.4307C466.3546,402.581,456.5048,412.4307,444.3546,412.4307z"/>
	<path class="st4" d="M444.3546,412.4307H202.641c-12.1503,0-22-9.8497-22-22V117c0-12.1503,9.8497-22,22-22h241.7135
		c12.1502,0,22,9.8497,22,22v273.4307C466.3546,402.581,456.5048,412.4307,444.3546,412.4307z"/>
	<path class="st11" d="M142.3007,370.8869H78.8713c-4.9706,0-9-4.0294-9-9v-80.6664c0-4.9706,4.0294-9,9-9h63.4294
		c4.9706,0,9,4.0294,9,9v80.6664C151.3007,366.8575,147.2713,370.8869,142.3007,370.8869z"/>
	<path class="st20" d="M137.1488,302.0801H85.3215c-3.866,0-7-3.134-7-7v-4.1754c0-3.866,3.134-7,7-7h51.8273c3.866,0,7,3.134,7,7
		v4.1754C144.1488,298.9461,141.0148,302.0801,137.1488,302.0801z"/>
	<path class="st20" d="M112.8966,331.9397H85.3215c-3.866,0-7-3.134-7-7v-4.1754c0-3.866,3.134-7,7-7h27.5751c3.866,0,7,3.134,7,7
		v4.1754C119.8966,328.8057,116.7626,331.9397,112.8966,331.9397z"/>
	<path class="st21" d="M423.8789,194.3832h-8.355v-18.6648c6.9444-1.846,12.0683-8.1582,12.0683-15.6835V135.434
		c0-1.5381-1.247-2.785-2.785-2.785h-26.9217c-1.538,0-2.785,1.2469-2.785,2.785v24.6008c0,7.5254,5.124,13.8375,12.0683,15.6835
		v18.6648h-8.355c-2.3072,0-4.1775,1.8703-4.1775,4.1775s1.8703,4.1775,4.1775,4.1775h25.065c2.3073,0,4.1775-1.8703,4.1775-4.1775
		S426.1861,194.3832,423.8789,194.3832z"/>
	<path class="st21" d="M370.9639,202.274h-45.9525c-2.3072,0-4.1775-1.8703-4.1775-4.1775c0-2.3072,1.8703-4.1775,4.1775-4.1775
		h45.9525c2.3072,0,4.1775,1.8703,4.1775,4.1775C375.1414,200.4037,373.2711,202.274,370.9639,202.274z"/>
	<path class="st21" d="M336.646,135.5506c-0.9365-2.3266-4.2301-2.3266-5.1666,0l-8.2775,20.559
		c-0.7366,1.8302,0.6106,3.8251,2.5837,3.8251h4.0995v21.4518c0,2.3072,1.8703,4.1775,4.1775,4.1775
		c2.3073,0,4.1775-1.8703,4.1775-4.1775v-21.4518h4.0995c1.9732,0,3.3203-1.995,2.5837-3.8251L336.646,135.5506z"/>
	<path class="st21" d="M372.7734,155.7456l-8.2775-20.559c-0.9365-2.3265-4.2301-2.3265-5.1666,0l-8.2775,20.559
		c-0.7366,1.8302,0.6106,3.8251,2.5837,3.8251h4.0623v21.7179c0,2.3072,1.8703,4.1775,4.1775,4.1775
		c2.3072,0,4.1775-1.8703,4.1775-4.1775v-21.7179h4.1367C372.1629,159.5707,373.51,157.5758,372.7734,155.7456z"/>
	<path class="st21" d="M306.884,157.9199c-1.5775-12.954-11.7714-22.95-24.1117-22.95s-22.5343,9.996-24.1117,22.95
		c-0.2262,1.8586,1.1223,3.5075,2.8457,3.5075h17.5527v22.3802c0,2.8154-2.29,5.1058-5.1058,5.1058
		c-2.3073,0-4.1775,1.8703-4.1775,4.1775s1.8703,4.1775,4.1775,4.1775c7.4221,0,13.4608-6.0387,13.4608-13.4608v-22.3802h16.6243
		C305.7617,161.4274,307.1102,159.7785,306.884,157.9199z"/>
</g>
</svg>
