<?xml version="1.0" encoding="utf-8"?>
<!-- Generator: Adobe Illustrator 25.2.0, SVG Export Plug-In . SVG Version: 6.00 Build 0)  -->
<svg version="1.1" id="Ebene_1" xmlns="http://www.w3.org/2000/svg" xmlns:xlink="http://www.w3.org/1999/xlink" x="0px" y="0px"
	 viewBox="0 0 500 500" style="enable-background:new 0 0 500 500;" xml:space="preserve">
<style type="text/css">
	.st0{opacity:0.5;fill:#95ABBF;enable-background:new    ;}
	.st1{fill:#F44257;}
	.st2{fill:#4D90F4;}
	.st3{fill:#CC213E;}
	.st4{fill:#FFAC2F;}
	.st5{display:none;}
	.st6{display:inline;opacity:0;fill:#3B80FF;}
	.st7{display:inline;opacity:0.25;fill:#3B80FF;}
	.st8{display:inline;fill:#3B80FF;}
	.st9{display:inline;}
	.st10{fill:#3B80FF;}
	.st11{fill:#FFFFFF;}
	.st12{fill:#1765F5;}
	.st13{display:none;fill:#FFFFFF;}
	.st14{opacity:0;}
	.st15{opacity:0.25;}
	.st16{display:none;fill:#EA9126;}
	.st17{fill:#ED9726;}
	.st18{fill:#35495F;}
	.st19{fill:#3EBA70;}
	.st20{opacity:0.5;fill:#B9C0C9;enable-background:new    ;}
	.st21{fill:#C9791B;}
</style>
<g>
	<rect y="0" class="st14" width="500" height="500"/>
	<polygon class="st15" points="438.2607,249.2607 250.2606,61.2606 62.2605,249.2607 103.5,249.2607 103.5,437.5 396.5,437.5 
		396.5,249.2607 	"/>
	<path d="M408,449H92V260.7607H58.6392c-8.909,0-13.3707-10.7714-7.0711-17.0711L250.2607,44.9971l198.6926,198.6926
		c6.2997,6.2997,1.838,17.0711-7.0711,17.0711H408V449z M115,426h270V237.7607h25.4971L250.2607,77.5239L90.0244,237.7607H115V426z"
		/>
	<path d="M296,449h-93V328.5c0-9.0981,7.4023-16.5,16.5-16.5h60c9.0977,0,16.5,7.4019,16.5,16.5V449z M226,426h47v-88
		c0-1.6569-1.3431-3-3-3h-41c-1.6569,0-3,1.3431-3,3V426z"/>
</g>
</svg>
