<?xml version="1.0" encoding="utf-8"?>
<!-- Generator: Adobe Illustrator 25.2.0, SVG Export Plug-In . SVG Version: 6.00 Build 0)  -->
<svg version="1.1" id="Ebene_1" xmlns="http://www.w3.org/2000/svg" xmlns:xlink="http://www.w3.org/1999/xlink" x="0px" y="0px"
	 viewBox="0 0 500 500" style="enable-background:new 0 0 500 500;" xml:space="preserve">
<style type="text/css">
	.st0{opacity:0.5;fill:#95ABBF;enable-background:new    ;}
	.st1{fill:#F44257;}
	.st2{fill:#4D90F4;}
	.st3{fill:#CC213E;}
	.st4{fill:#FFAC2F;}
	.st5{display:none;}
	.st6{display:inline;opacity:0;fill:#3B80FF;}
	.st7{display:inline;opacity:0.25;fill:#3B80FF;}
	.st8{display:inline;fill:#3B80FF;}
	.st9{display:inline;}
	.st10{fill:#3B80FF;}
	.st11{fill:#FFFFFF;}
	.st12{fill:#1765F5;}
	.st13{display:none;fill:#FFFFFF;}
	.st14{opacity:0;}
	.st15{opacity:0.25;}
	.st16{display:none;fill:#EA9126;}
	.st17{fill:#ED9726;}
	.st18{fill:#35495F;}
	.st19{fill:#3EBA70;}
	.st20{opacity:0.5;fill:#B9C0C9;enable-background:new    ;}
	.st21{fill:#C9791B;}
</style>
<g id="Ebene_1_2_">
	<path class="st2" d="M255.0825,292.0953H55.6777c-20.4345,0-37-16.5655-37-37V94.7759c0-20.4345,16.5655-37,37-37h199.4048
		c20.4345,0,37,16.5655,37,37v160.3194C292.0825,275.5298,275.517,292.0953,255.0825,292.0953z"/>
	<g>
		<path class="st11" d="M181.5505,205.7558h-48.5174l-8.0296,23.2115H99.3499l43.8045-121.9956h28.4487l43.8071,121.9956h-25.8301
			L181.5505,205.7558z M157.2905,135.2466l-17.6266,50.9621h35.2559L157.2905,135.2466z"/>
	</g>
	<path class="st2" d="M67.4247,288.5296l77.3447-0.2445l-54.2692,54.2692c-8.5154,8.5154-23.0755,2.4845-23.0755-9.5582
		L67.4247,288.5296L67.4247,288.5296z"/>
	<path class="st12" d="M444.3992,395.7043H247.7136c-22.0914,0-40-17.9086-40-40V194.0144c0-22.0914,17.9086-40,40-40h196.6856
		c22.0914,0,40,17.9086,40,40v161.6898C484.3992,377.7957,466.4906,395.7043,444.3992,395.7043z"/>
	<path class="st12" d="M421.7573,392.4234l-77.3447-0.2445l54.2692,54.2692c8.5154,8.5154,23.0755,2.4845,23.0755-9.5582V392.4234z"
		/>
	<g>
		<path class="st11" d="M404.936,345.2536c-19.4-7.5357-41.6857-20.3622-57.0775-33.8306
			c-16.1939,14.2694-35.4337,25.9734-58.3612,36.0745c-4.0081-6.4133-8.0163-12.9867-11.7041-19.4
			c25.8133-10.101,40.8847-20.0408,55.4745-32.2265c-12.8265-15.3918-24.2102-31.2643-31.7449-52.1071h-18.2786v-19.2403h52.5888
			V204.322h21.6449v20.2015h53.7112v19.2403h-17.4765c-7.3745,20.6826-17.7959,37.9979-30.9439,52.749
			c15.0714,12.5051,36.3959,23.7285,53.551,28.0571L404.936,345.2536z M348.1789,281.4413
			c8.3367-9.299,16.1928-20.5224,22.7674-37.6775h-46.9776C329.9013,259.3159,339.2003,271.1801,348.1789,281.4413z"/>
	</g>
</g>
</svg>
