<?xml version="1.0" encoding="utf-8"?>
<!-- Generator: Adobe Illustrator 25.2.0, SVG Export Plug-In . SVG Version: 6.00 Build 0)  -->
<svg version="1.1" id="Ebene_1" xmlns="http://www.w3.org/2000/svg" xmlns:xlink="http://www.w3.org/1999/xlink" x="0px" y="0px"
	 viewBox="0 0 500 500" style="enable-background:new 0 0 500 500;" xml:space="preserve">
<style type="text/css">
	.st0{opacity:0.5;fill:#95ABBF;enable-background:new    ;}
	.st1{fill:#F44257;}
	.st2{fill:#4D90F4;}
	.st3{fill:#CC213E;}
	.st4{fill:#FFAC2F;}
	.st5{display:none;}
	.st6{display:inline;opacity:0;fill:#3B80FF;}
	.st7{display:inline;opacity:0.25;fill:#3B80FF;}
	.st8{display:inline;fill:#3B80FF;}
	.st9{display:inline;}
	.st10{fill:#3B80FF;}
	.st11{fill:#FFFFFF;}
	.st12{fill:#1765F5;}
	.st13{display:none;fill:#FFFFFF;}
	.st14{opacity:0;}
	.st15{opacity:0.25;}
	.st16{display:none;fill:#EA9126;}
	.st17{fill:#ED9726;}
	.st18{fill:#35495F;}
	.st19{fill:#3EBA70;}
	.st20{opacity:0.5;fill:#B9C0C9;enable-background:new    ;}
	.st21{fill:#C9791B;}
</style>
<g id="Ebene_1_7_">
	<rect class="st14" width="500" height="500"/>
	<path d="M250.8594,283.6934c-57.5459,0-104.3623-46.8169-104.3623-104.3628S193.3135,74.9678,250.8594,74.9678
		s104.3623,46.8169,104.3623,104.3628S308.4053,283.6934,250.8594,283.6934z M250.8594,97.9678
		c-44.8633,0-81.3623,36.499-81.3623,81.3628s36.499,81.3628,81.3623,81.3628s81.3623-36.499,81.3623-81.3628
		S295.7227,97.9678,250.8594,97.9678z"/>
	<path class="st15" d="M403.6982,372.3423c-13.1831-59.2286-42.6675-107.7791-80.7554-134.4717
		c12.9893-15.9746,20.7788-36.3463,20.7788-58.54c0-51.2866-41.5757-92.8626-92.8623-92.8626s-92.8628,41.576-92.8628,92.8626
		c0,24.1286,9.2043,46.1061,24.291,62.6179c-35.4521,27.4343-62.7603,74.1939-75.2747,130.6255
		c-2.1467,9.6803,3.0032,19.5106,12.2498,23.0909c41.1826,15.9465,87.2261,24.8672,135.8176,24.8672
		c48.822,0,95.0706-9.0068,136.4016-25.0961C400.7158,391.8413,405.8511,382.0145,403.6982,372.3423z"/>
	<path d="M255.0801,432.0322c-48.9336,0-96.0264-8.6274-139.9697-25.6431c-14.6084-5.6562-22.7354-20.9248-19.3252-36.3047
		c13.0752-58.958,41.2959-107.6938,79.4639-137.231l8.3799-6.4854l7.1484,7.8232c15.3877,16.8423,37.2871,26.502,60.082,26.502
		c24.5967,0,47.6182-10.9629,63.1611-30.0781l6.7549-8.3066l8.7676,6.1445c40.5928,28.4482,71.7129,79.9834,85.3809,141.3906
		v-0.0005c0,0.0005,0,0.0005,0,0.0005c3.4189,15.3604-4.6846,30.6309-19.2695,36.3086
		C351.54,423.3252,304.2441,432.0322,255.0801,432.0322z M181.6523,257.4355c-29.7129,26.5703-52.5859,68.8086-63.4121,117.6279
		c-0.9316,4.2012,1.2441,8.3555,5.1748,9.8774c41.2852,15.9858,85.583,24.0913,131.665,24.0913
		c46.2979,0,90.7871-8.1802,132.2305-24.313c3.9258-1.5278,6.0967-5.6826,5.1621-9.8779v-0.0005
		c-11.4902-51.624-36.0576-95.2432-68.083-121.4487c-19.4795,19.3789-45.7178,30.3013-73.5303,30.3013
		C225.3096,283.6934,200.6396,274.2354,181.6523,257.4355z"/>
</g>
</svg>
