<?xml version="1.0" encoding="utf-8"?>
<!-- Generator: Adobe Illustrator 25.2.0, SVG Export Plug-In . SVG Version: 6.00 Build 0)  -->
<svg version="1.1" id="Ebene_1" xmlns="http://www.w3.org/2000/svg" xmlns:xlink="http://www.w3.org/1999/xlink" x="0px" y="0px"
	 viewBox="0 0 500 500" style="enable-background:new 0 0 500 500;" xml:space="preserve">
<style type="text/css">
	.st0{opacity:0.5;fill:#95ABBF;enable-background:new    ;}
	.st1{fill:#F44257;}
	.st2{fill:#4D90F4;}
	.st3{fill:#CC213E;}
	.st4{fill:#FFAC2F;}
	.st5{display:none;}
	.st6{display:inline;opacity:0;fill:#3B80FF;}
	.st7{display:inline;opacity:0.25;fill:#3B80FF;}
	.st8{display:inline;fill:#3B80FF;}
	.st9{display:inline;}
	.st10{fill:#3B80FF;}
	.st11{fill:#FFFFFF;}
	.st12{fill:#1765F5;}
	.st13{display:none;fill:#FFFFFF;}
	.st14{opacity:0;}
	.st15{opacity:0.25;}
	.st16{display:none;fill:#EA9126;}
	.st17{fill:#ED9726;}
	.st18{fill:#35495F;}
	.st19{fill:#3EBA70;}
	.st20{opacity:0.5;fill:#B9C0C9;enable-background:new    ;}
	.st21{fill:#C9791B;}
</style>
<g>
	<rect class="st14" width="500" height="500"/>
	<path class="st15" d="M434.8051,387.8913H71.1949c-8.2843,0-15-6.7157-15-15V135.6087c0-8.2843,6.7157-15,15-15h363.6103
		c8.2843,0,15,6.7157,15,15v237.2827C449.8051,381.1756,443.0894,387.8913,434.8051,387.8913z"/>
	<path d="M375.2184,261.3578c0-11.1778-6.2231-17.0202-15.6224-17.0202c-9.5255,0-15.7497,5.8423-15.7497,17.0202v38.8657h-17.7816
		v-38.8657c0-11.1778-6.2242-17.0202-15.6224-17.0202c-9.6528,0-15.8769,5.8423-15.8769,17.0202v38.8657h-17.7816v-70.365h17.7816
		v8.5095c4.4456-5.8423,11.9392-9.5255,20.7033-9.5255c10.9233,0,19.9408,4.6991,24.7672,13.4632
		c4.5729-8.0016,13.845-13.4632,24.133-13.4632c16.8918,0,28.8311,10.6687,28.8311,30.1016v41.2794h-17.7816V261.3578z"/>
	<path d="M143.1721,228.7152c17.5282,0,29.3401,9.1448,33.1506,24.8945h-19.1794c-2.0319-5.9696-6.7311-9.78-14.0984-9.78
		c-9.9062,0-16.5111,7.4936-16.5111,21.2113c0,13.7177,6.6049,21.084,16.5111,21.084c7.3674,0,11.9392-3.3025,14.0984-9.6528
		h19.1794c-3.8104,14.9872-15.6224,24.8945-33.1506,24.8945c-20.3215,0-34.8018-14.2257-34.8018-36.3257
		S122.8505,228.7152,143.1721,228.7152z"/>
	<path d="M223.8218,301.3666c-20.3215,0-35.6905-14.2257-35.6905-36.3257c0-22.2273,15.8769-36.3257,36.1985-36.3257
		c20.3226,0,36.1985,14.0984,36.1985,36.3257C260.5283,287.1409,244.2706,301.3666,223.8218,301.3666z M223.8218,285.8704
		c9.3993,0,18.4169-6.8583,18.4169-20.8295c0-14.0984-8.7641-20.8306-18.1623-20.8306c-9.3993,0-17.9089,6.7321-17.9089,20.8306
		C206.1675,279.0121,214.2963,285.8704,223.8218,285.8704z"/>
	<path d="M436.5075,110.4138H69.4925C56.5386,110.4138,46,120.9524,46,133.9063v240.6874c0,12.9539,10.5386,23.4925,23.4925,23.4925
		h367.015c12.9539,0,23.4925-10.5385,23.4925-23.4925V133.9063C460,120.9524,449.4615,110.4138,436.5075,110.4138z
		 M436.5075,377.6965H69.4925c-1.7136,0-3.1028-1.3892-3.1028-3.1028V157.3988c0-1.9584,1.5876-3.546,3.546-3.546h366.1285
		c1.9584,0,3.5461,1.5876,3.5461,3.546v217.1949C439.6103,376.3073,438.2211,377.6965,436.5075,377.6965z"/>
</g>
</svg>
