<?xml version="1.0" encoding="utf-8"?>
<!-- Generator: Adobe Illustrator 24.1.2, SVG Export Plug-In . SVG Version: 6.00 Build 0)  -->
<svg version="1.1" id="Ebene_1" xmlns="http://www.w3.org/2000/svg" xmlns:xlink="http://www.w3.org/1999/xlink" x="0px" y="0px"
	 width="260px" height="116px" viewBox="0 0 260 116" style="enable-background:new 0 0 260 116;" xml:space="preserve">
<style type="text/css">
	.st0{fill-rule:evenodd;clip-rule:evenodd;fill:#4C84FF;}
	.st1{fill:#4C84FF;}
</style>
<g>
	<polygon class="st0" points="205.902832,23.71734 191.704453,23.71734 188.40007,29.576126 188.40007,18.986866 
		175.627792,18.986866 175.627792,77.171715 188.40007,77.171715 188.40007,34.597435 199.766357,34.597435 	"/>
	<path class="st1" d="M127.453613,61.004883c0-2.491699,0.501953-4.819824,1.508301-6.983887
		c1.004883-2.164062,2.40332-4.042969,4.197266-5.639648c1.791992-1.595215,3.922852-2.852539,6.393555-3.770508
		c2.469727-0.917969,5.168945-1.376953,8.098633-1.376953c2.885742,0,5.5625,0.44873,8.033203,1.344238
		c2.469727,0.896484,4.612305,2.142578,6.426758,3.737793c1.813477,1.59668,3.223633,3.498047,4.229492,5.705078
		c1.005859,2.208496,1.508789,4.645996,1.508789,7.312012c0,2.666992-0.514648,5.104492-1.541016,7.3125
		c-1.02832,2.208008-2.4375,4.109375-4.230469,5.705078c-1.792969,1.59668-3.945312,2.831055-6.458984,3.705078
		c-2.514648,0.874023-5.236328,1.311523-8.164062,1.311523c-2.885742,0-5.552734-0.4375-8.000977-1.311523
		c-2.449219-0.874023-4.557617-2.120117-6.328125-3.738281c-1.770508-1.617188-3.15918-3.550781-4.164062-5.803711
		C127.955566,66.262695,127.453613,63.759766,127.453613,61.004883z M139.978516,61.136719
		c0,1.136719,0.207031,2.174805,0.623047,3.114258c0.415039,0.941406,0.960938,1.760742,1.639648,2.459961
		c0.677734,0.699219,1.485352,1.245117,2.426758,1.638672c0.939453,0.393555,1.93457,0.59082,2.983398,0.59082
		c1.049805,0,2.042969-0.197266,2.984375-0.59082c0.939453-0.393555,1.748047-0.939453,2.425781-1.638672
		s1.223633-1.518555,1.639648-2.459961c0.415039-0.939453,0.623047-1.956055,0.623047-3.048828
		c0-1.049805-0.208008-2.042969-0.623047-2.983887c-0.416016-0.939453-0.961914-1.759277-1.639648-2.458984
		c-0.677734-0.699219-1.486328-1.246094-2.425781-1.639648c-0.941406-0.393555-1.93457-0.590332-2.984375-0.590332
		c-1.048828,0-2.043945,0.196777-2.983398,0.590332c-0.941406,0.393555-1.749023,0.94043-2.426758,1.639648
		c-0.678711,0.699707-1.224609,1.507812-1.639648,2.42627C140.185547,59.103516,139.978516,60.087891,139.978516,61.136719z"/>
	<path class="st1" d="M196.453613,61.004883c0-2.491699,0.501953-4.819824,1.508301-6.983887
		c1.004883-2.164062,2.40332-4.042969,4.197266-5.639648c1.791992-1.595215,3.922852-2.852539,6.393555-3.770508
		c2.469727-0.917969,5.168945-1.376953,8.098633-1.376953c2.885742,0,5.5625,0.44873,8.033203,1.344238
		c2.469727,0.896484,4.612305,2.142578,6.426758,3.737793c1.813477,1.59668,3.223633,3.498047,4.229492,5.705078
		c1.005859,2.208496,1.508789,4.645996,1.508789,7.312012c0,2.666992-0.514648,5.104492-1.541016,7.3125
		c-1.02832,2.208008-2.4375,4.109375-4.230469,5.705078c-1.792969,1.59668-3.945312,2.831055-6.458984,3.705078
		c-2.514648,0.874023-5.236328,1.311523-8.164062,1.311523c-2.885742,0-5.552734-0.4375-8.000977-1.311523
		c-2.449219-0.874023-4.557617-2.120117-6.328125-3.738281c-1.770508-1.617188-3.15918-3.550781-4.164062-5.803711
		C196.955566,66.262695,196.453613,63.759766,196.453613,61.004883z M208.978516,61.136719
		c0,1.136719,0.207031,2.174805,0.623047,3.114258c0.415039,0.941406,0.960938,1.760742,1.639648,2.459961
		c0.677734,0.699219,1.485352,1.245117,2.426758,1.638672c0.939453,0.393555,1.93457,0.59082,2.983398,0.59082
		c1.049805,0,2.042969-0.197266,2.984375-0.59082c0.939453-0.393555,1.748047-0.939453,2.425781-1.638672
		s1.223633-1.518555,1.639648-2.459961c0.415039-0.939453,0.623047-1.956055,0.623047-3.048828
		c0-1.049805-0.208008-2.042969-0.623047-2.983887c-0.416016-0.939453-0.961914-1.759277-1.639648-2.458984
		c-0.677734-0.699219-1.486328-1.246094-2.425781-1.639648c-0.941406-0.393555-1.93457-0.590332-2.984375-0.590332
		c-1.048828,0-2.043945,0.196777-2.983398,0.590332c-0.941406,0.393555-1.749023,0.94043-2.426758,1.639648
		c-0.678711,0.699707-1.224609,1.507812-1.639648,2.42627C209.185547,59.103516,208.978516,60.087891,208.978516,61.136719z"/>
	<polygon class="st0" points="109.239388,45.950577 98.547195,66.232086 87.952248,45.950577 73.760818,45.950577 
		89.823448,76.698669 93.029312,76.698669 80.809418,99.877998 95.473892,99.877998 123.903862,45.950577 	"/>
	<polygon class="st0" points="69.807793,45.950577 52.305035,45.950577 39.336159,58.762848 39.336159,19.459913 
		26.090828,19.459913 26.090828,77.171715 39.336159,77.171715 39.336159,64.755371 52.220036,77.171715 69.615623,77.171715 
		53.715488,61.848572 	"/>
</g>
</svg>
