<?xml version="1.0" encoding="utf-8"?>
<!-- Generator: Adobe Illustrator 24.1.0, SVG Export Plug-In . SVG Version: 6.00 Build 0)  -->
<svg version="1.1" id="Ebene_1" xmlns="http://www.w3.org/2000/svg" xmlns:xlink="http://www.w3.org/1999/xlink" x="0px" y="0px"
	 viewBox="0 0 260 116" style="enable-background:new 0 0 260 116;" xml:space="preserve">
<style type="text/css">
	.st0{fill-rule:evenodd;clip-rule:evenodd;fill:#FFFFFF;}
	.st1{fill:#FFFFFF;}
</style>
<g>
	<polygon class="st0" points="188.4,19 175.6,19 175.6,77.2 188.4,77.2 	"/>
	<path class="st1" d="M127.5,61c0-2.5,0.5-4.8,1.5-7c1-2.2,2.4-4,4.2-5.6c1.8-1.6,3.9-2.9,6.4-3.8c2.5-0.9,5.2-1.4,8.1-1.4
		c2.9,0,5.6,0.4,8,1.3c2.5,0.9,4.6,2.1,6.4,3.7c1.8,1.6,3.2,3.5,4.2,5.7c1,2.2,1.5,4.6,1.5,7.3c0,2.7-0.5,5.1-1.5,7.3
		c-1,2.2-2.4,4.1-4.2,5.7c-1.8,1.6-3.9,2.8-6.5,3.7c-2.5,0.9-5.2,1.3-8.2,1.3c-2.9,0-5.6-0.4-8-1.3c-2.4-0.9-4.6-2.1-6.3-3.7
		c-1.8-1.6-3.2-3.6-4.2-5.8C128,66.3,127.5,63.8,127.5,61z M140,61.1c0,1.1,0.2,2.2,0.6,3.1c0.4,0.9,1,1.8,1.6,2.5
		c0.7,0.7,1.5,1.2,2.4,1.6c0.9,0.4,1.9,0.6,3,0.6c1,0,2-0.2,3-0.6c0.9-0.4,1.7-0.9,2.4-1.6s1.2-1.5,1.6-2.5c0.4-0.9,0.6-2,0.6-3
		c0-1-0.2-2-0.6-3c-0.4-0.9-1-1.8-1.6-2.5c-0.7-0.7-1.5-1.2-2.4-1.6c-0.9-0.4-1.9-0.6-3-0.6c-1,0-2,0.2-3,0.6
		c-0.9,0.4-1.7,0.9-2.4,1.6c-0.7,0.7-1.2,1.5-1.6,2.4C140.2,59.1,140,60.1,140,61.1z"/>
	<path class="st1" d="M196.5,61c0-2.5,0.5-4.8,1.5-7c1-2.2,2.4-4,4.2-5.6c1.8-1.6,3.9-2.9,6.4-3.8c2.5-0.9,5.2-1.4,8.1-1.4
		c2.9,0,5.6,0.4,8,1.3c2.5,0.9,4.6,2.1,6.4,3.7c1.8,1.6,3.2,3.5,4.2,5.7c1,2.2,1.5,4.6,1.5,7.3c0,2.7-0.5,5.1-1.5,7.3
		c-1,2.2-2.4,4.1-4.2,5.7c-1.8,1.6-3.9,2.8-6.5,3.7c-2.5,0.9-5.2,1.3-8.2,1.3c-2.9,0-5.6-0.4-8-1.3c-2.4-0.9-4.6-2.1-6.3-3.7
		c-1.8-1.6-3.2-3.6-4.2-5.8C197,66.3,196.5,63.8,196.5,61z M209,61.1c0,1.1,0.2,2.2,0.6,3.1c0.4,0.9,1,1.8,1.6,2.5
		c0.7,0.7,1.5,1.2,2.4,1.6c0.9,0.4,1.9,0.6,3,0.6c1,0,2-0.2,3-0.6c0.9-0.4,1.7-0.9,2.4-1.6s1.2-1.5,1.6-2.5c0.4-0.9,0.6-2,0.6-3
		c0-1-0.2-2-0.6-3c-0.4-0.9-1-1.8-1.6-2.5c-0.7-0.7-1.5-1.2-2.4-1.6c-0.9-0.4-1.9-0.6-3-0.6c-1,0-2,0.2-3,0.6
		c-0.9,0.4-1.7,0.9-2.4,1.6c-0.7,0.7-1.2,1.5-1.6,2.4C209.2,59.1,209,60.1,209,61.1z"/>
	<polygon class="st0" points="109.2,46 98.5,66.2 88,46 73.8,46 89.8,76.7 93,76.7 80.8,99.9 95.5,99.9 123.9,46 	"/>
	<polygon class="st0" points="69.8,46 52.3,46 39.3,58.8 39.3,19.5 26.1,19.5 26.1,77.2 39.3,77.2 39.3,64.8 52.2,77.2 69.6,77.2 
		53.7,61.8 	"/>
</g>
<polygon class="st0" points="212.9,34.8 186.2,34.8 196.2,24.7 212.9,24.7 "/>
</svg>
