<?xml version="1.0" encoding="utf-8"?>
<!-- Generator: Adobe Illustrator 25.1.0, SVG Export Plug-In . SVG Version: 6.00 Build 0)  -->
<svg version="1.1" id="Ebene_1" xmlns="http://www.w3.org/2000/svg" xmlns:xlink="http://www.w3.org/1999/xlink" x="0px" y="0px"
	 viewBox="0 0 500 500" style="enable-background:new 0 0 500 500;" xml:space="preserve">
<style type="text/css">
	.st0{opacity:0.5;fill:#95ABBF;enable-background:new    ;}
	.st1{fill:#F44257;}
	.st2{fill:#4D90F4;}
	.st3{fill:#CC213E;}
	.st4{fill:#FFAC2F;}
	.st5{fill:#FFFFFF;}
	.st6{fill:#1765F5;}
	.st7{display:none;fill:#FFFFFF;}
	.st8{display:none;fill:#EA9126;}
	.st9{fill:#ED9726;}
	.st10{fill:#35495F;}
	.st11{fill:#3EBA70;}
	.st12{opacity:0.5;fill:#B9C0C9;enable-background:new    ;}
	.st13{fill:#C9791B;}
</style>
<g id="Ebene_1_5_">
	<polygon class="st6" points="279.7194,186.8269 418,186.8269 279.7194,48.5463 	"/>
	<path class="st2" d="M279.7194,48.5463H137.7015C119.641,48.5463,105,63.1872,105,81.2478v348.5045
		c0,18.0605,14.641,32.7015,32.7015,32.7015h247.597c18.0605,0,32.7015-14.641,32.7015-32.7015V186.8269h-89.221
		c-27.0948,0-49.0596-21.9647-49.0596-49.0596L279.7194,48.5463L279.7194,48.5463z"/>
	<path class="st5" d="M224.7053,182.4013h-44.1536c-7.0446,0-12.7555-5.7108-12.7555-12.7555l0,0
		c0-7.0446,5.7108-12.7555,12.7555-12.7555h44.1536c7.0447,0,12.7555,5.7108,12.7555,12.7555l0,0
		C237.4608,176.6904,231.75,182.4013,224.7053,182.4013z"/>
	<path class="st7" d="M222.2658,183.5105H180.303c-7.8885,0-14.2835-6.3949-14.2835-14.2835v-0.0002
		c0-7.8886,6.3949-14.2835,14.2835-14.2835h41.9628c7.8885,0,14.2835,6.3949,14.2835,14.2835v0.0002
		C236.5493,177.1155,230.1543,183.5105,222.2658,183.5105z"/>
	<path class="st5" d="M351.598,264.534H181.8302c-7.7402,0-14.0148-6.2747-14.0148-14.0148v-0.0002
		c0-7.7402,6.2746-14.0148,14.0148-14.0148H351.598c7.7402,0,14.0148,6.2747,14.0148,14.0148v0.0002
		C365.6128,258.2593,359.3382,264.534,351.598,264.534z"/>
	<path class="st5" d="M351.598,331.2346H181.8302c-7.7402,0-14.0148-6.2747-14.0148-14.0148v-0.0002
		c0-7.7402,6.2746-14.0148,14.0148-14.0148H351.598c7.7402,0,14.0148,6.2747,14.0148,14.0148v0.0002
		C365.6128,324.9599,359.3382,331.2346,351.598,331.2346z"/>
</g>
</svg>
