<?xml version="1.0" encoding="utf-8"?>
<!-- Generator: Adobe Illustrator 25.1.0, SVG Export Plug-In . SVG Version: 6.00 Build 0)  -->
<svg version="1.1" id="Ebene_1" xmlns="http://www.w3.org/2000/svg" xmlns:xlink="http://www.w3.org/1999/xlink" x="0px" y="0px"
	 viewBox="0 0 500 500" style="enable-background:new 0 0 500 500;" xml:space="preserve">
<style type="text/css">
	.st0{opacity:0.5;fill:#95ABBF;enable-background:new    ;}
	.st1{fill:#F44257;}
	.st2{fill:#4D90F4;}
	.st3{fill:#CC213E;}
	.st4{fill:#FFAC2F;}
	.st5{fill:#FFFFFF;}
	.st6{fill:#1765F5;}
	.st7{display:none;fill:#FFFFFF;}
	.st8{display:none;fill:#EA9126;}
	.st9{fill:#ED9726;}
	.st10{fill:#35495F;}
	.st11{fill:#3EBA70;}
	.st12{opacity:0.5;fill:#B9C0C9;enable-background:new    ;}
	.st13{fill:#C9791B;}
</style>
<g id="Ebene_1_6_">
	<path class="st0" d="M121.7207,457.5156h-5.8157c-12.7025,0-23-10.2975-23-23V61.4844c0-12.7025,10.2974-23,23-23h5.8157
		c12.7025,0,23,10.2974,23,23v373.0312C144.7207,447.2182,134.4232,457.5156,121.7207,457.5156z"/>
	<path class="st0" d="M255.7656,457.5156h-5.8157c-12.7025,0-23-10.2975-23-23V61.4844c0-12.7025,10.2974-23,23-23h5.8157
		c12.7025,0,23,10.2974,23,23v373.0312C278.7656,447.2182,268.4682,457.5156,255.7656,457.5156z"/>
	<path class="st0" d="M392.0634,457.5156h-5.8157c-12.7025,0-23-10.2975-23-23V61.4844c0-12.7025,10.2975-23,23-23h5.8157
		c12.7025,0,23,10.2974,23,23v373.0312C415.0634,447.2182,404.766,457.5156,392.0634,457.5156z"/>
	<path class="st2" d="M139.5021,288.9868H99.25c-16.5685,0-30-13.4315-30-30v-74.0449c0-16.5685,13.4315-30,30-30h40.2521
		c16.5685,0,30,13.4315,30,30v74.0449C169.5021,275.5553,156.0706,288.9868,139.5021,288.9868z"/>
	<path class="st2" d="M273.547,379.101h-40.2521c-16.5685,0-30-13.4315-30-30v-74.0449c0-16.5685,13.4315-30,30-30h40.2521
		c16.5685,0,30,13.4315,30,30v74.0449C303.547,365.6696,290.1156,379.101,273.547,379.101z"/>
	<path class="st2" d="M409,226.8591h-40.2521c-16.5685,0-30-13.4315-30-30v-74.0449c0-16.5685,13.4315-30,30-30H409
		c16.5685,0,30,13.4315,30,30v74.0449C439,213.4276,425.5685,226.8591,409,226.8591z"/>
</g>
</svg>
