<?xml version="1.0" encoding="utf-8"?>
<!-- Generator: Adobe Illustrator 25.2.0, SVG Export Plug-In . SVG Version: 6.00 Build 0)  -->
<svg version="1.1" id="Ebene_1" xmlns="http://www.w3.org/2000/svg" xmlns:xlink="http://www.w3.org/1999/xlink" x="0px" y="0px"
	 viewBox="0 0 500 500" style="enable-background:new 0 0 500 500;" xml:space="preserve">
<style type="text/css">
	.st0{opacity:0.5;fill:#95ABBF;enable-background:new    ;}
	.st1{fill:#F44257;}
	.st2{fill:#4D90F4;}
	.st3{fill:#CC213E;}
	.st4{fill:#FFAC2F;}
	.st5{display:none;}
	.st6{display:inline;opacity:0;fill:#3B80FF;}
	.st7{display:inline;opacity:0.25;fill:#3B80FF;}
	.st8{display:inline;fill:#3B80FF;}
	.st9{display:inline;}
	.st10{fill:#3B80FF;}
	.st11{fill:#FFFFFF;}
	.st12{fill:#1765F5;}
	.st13{display:none;fill:#FFFFFF;}
	.st14{opacity:0;}
	.st15{opacity:0.25;}
	.st16{display:none;fill:#EA9126;}
	.st17{fill:#ED9726;}
	.st18{fill:#35495F;}
	.st19{fill:#3EBA70;}
	.st20{opacity:0.5;fill:#B9C0C9;enable-background:new    ;}
	.st21{fill:#C9791B;}
</style>
<g id="Ebene_1_5_" class="st5">
	<rect class="st6" width="500" height="500"/>
	<path class="st7" d="M272.4907,51.1441H119.7134c-10.907,0-19.749,8.8419-19.749,19.749v369.214
		c0,10.907,8.8419,19.7489,19.749,19.7489h269.5732c10.907,0,19.7489-8.8419,19.7489-19.7489V187.6889H292.2397
		c-10.907,0-19.749-8.8419-19.749-19.7489L272.4907,51.1441L272.4907,51.1441z"/>
	<path class="st8" d="M421,183.6539v256.4534c0,17.5147-14.1985,31.7133-31.7133,31.7133h-269.573
		c-17.515,0-31.7138-14.1987-31.7138-31.7137V70.8932c0-17.515,14.1987-31.7137,31.7138-31.7137H276.526
		c5.0771,0,9.9464,2.0169,13.5365,5.607l125.3305,125.331C418.9831,173.7075,421,178.5767,421,183.6539z M119.7138,63.1087
		c-4.2923,0-7.7845,3.4922-7.7845,7.7845v369.2141c0,4.2923,3.4922,7.784,7.7845,7.784h269.5725
		c4.2923,0,7.7845-3.4917,7.7845-7.784V199.6537H292.24c-17.4871,0-31.7137-14.2267-31.7137-31.7138V63.1087H119.7138z"/>
	<path class="st8" d="M215.2957,183.3189h-43.5993c-6.9562,0-12.5954-5.6391-12.5954-12.5954l0,0
		c0-6.9562,5.6391-12.5954,12.5954-12.5954h43.5993c6.9563,0,12.5954,5.6391,12.5954,12.5954l0,0
		C227.891,177.6797,222.2519,183.3189,215.2957,183.3189z"/>
	<path class="st8" d="M340.5955,264.4206H172.9587c-7.643,0-13.8389-6.1959-13.8389-13.8389v-0.0002
		c0-7.643,6.1958-13.8389,13.8389-13.8389h167.6368c7.643,0,13.8389,6.1959,13.8389,13.8389v0.0002
		C354.4344,258.2247,348.2386,264.4206,340.5955,264.4206z"/>
	<path class="st8" d="M340.5955,330.2839H172.9587c-7.643,0-13.8389-6.1959-13.8389-13.8389v-0.0002
		c0-7.643,6.1958-13.8389,13.8389-13.8389h167.6368c7.643,0,13.8389,6.1959,13.8389,13.8389v0.0002
		C354.4344,324.088,348.2386,330.2839,340.5955,330.2839z"/>
</g>
<g>
	<rect x="0" y="0" class="st14" width="500" height="500"/>
	<path class="st15" d="M338.8935,74.69H137.1649c-7.7874,0-14.1,6.3128-14.1,14.1v333.7c0,7.7873,6.3126,14.1,14.1,14.1h245.4102
		c7.7874,0,14.1-6.3127,14.1-14.1V132.4717L338.8935,74.69z"/>
	<path d="M335.5839,63.88H137.1651c-13.7574,0-24.91,11.1526-24.91,24.91v333.7c0,13.7574,11.1526,24.91,24.91,24.91h245.4098
		c13.7574,0,24.91-11.1526,24.91-24.91V135.7813c0-4.9861-1.9807-9.7679-5.5063-13.2936l-53.101-53.1013
		C345.3519,65.8607,340.57,63.88,335.5839,63.88z M371.0474,122.1315h-21.814 M382.5749,425.78H137.1651
		c-1.8139,0-3.29-1.4761-3.29-3.29V88.79c0-1.8139,1.4761-3.29,3.29-3.29h191.3882v37.5715c0,10.8848,8.8557,19.74,19.74,19.74
		h37.5715V422.49C385.8649,424.3039,384.3888,425.78,382.5749,425.78z"/>
	<path d="M239,168h-56c-5.5228,0-10-4.4771-10-10v0c0-5.5228,4.4771-10,10-10h56c5.5228,0,10,4.4771,10,10v0
		C249,163.5229,244.5229,168,239,168z"/>
	<path d="M335,241H183c-5.5228,0-10-4.4771-10-10v0c0-5.5228,4.4771-10,10-10h152c5.5229,0,10,4.4771,10,10v0
		C345,236.5229,340.5229,241,335,241z"/>
	<path d="M335,299H183c-5.5228,0-10-4.4771-10-10l0,0c0-5.5229,4.4771-10,10-10h152c5.5229,0,10,4.4771,10,10l0,0
		C345,294.5229,340.5229,299,335,299z"/>
</g>
</svg>
