<?xml version="1.0" encoding="utf-8"?>
<!-- Generator: Adobe Illustrator 25.2.0, SVG Export Plug-In . SVG Version: 6.00 Build 0)  -->
<svg version="1.1" id="Ebene_1" xmlns="http://www.w3.org/2000/svg" xmlns:xlink="http://www.w3.org/1999/xlink" x="0px" y="0px"
	 viewBox="0 0 500 500" style="enable-background:new 0 0 500 500;" xml:space="preserve">
<style type="text/css">
	.st0{opacity:0.5;fill:#95ABBF;enable-background:new    ;}
	.st1{fill:#F44257;}
	.st2{fill:#4D90F4;}
	.st3{fill:#CC213E;}
	.st4{fill:#FFAC2F;}
	.st5{display:none;}
	.st6{display:inline;opacity:0;fill:#3B80FF;}
	.st7{display:inline;opacity:0.25;fill:#3B80FF;}
	.st8{display:inline;fill:#3B80FF;}
	.st9{display:inline;}
	.st10{fill:#3B80FF;}
	.st11{fill:#FFFFFF;}
	.st12{fill:#1765F5;}
	.st13{display:none;fill:#FFFFFF;}
	.st14{opacity:0;}
	.st15{opacity:0.25;}
	.st16{display:none;fill:#EA9126;}
	.st17{fill:#ED9726;}
	.st18{fill:#35495F;}
	.st19{fill:#3EBA70;}
	.st20{opacity:0.5;fill:#B9C0C9;enable-background:new    ;}
	.st21{fill:#C9791B;}
</style>
<g>
	<rect class="st14" width="500" height="500"/>
	<polygon class="st15" points="369.454,118.7539 368.5207,118.7539 303.2687,118.7539 251.5,216.2011 199.8436,118.966 
		199.7313,118.7539 134.4793,118.7539 133.546,118.7539 63.7216,118.7539 251.5,419.2345 438.8972,119.3649 439.2792,118.7539 	"/>
	<path d="M251.4999,439.5269L44.3196,108h161.8816l3.1433,5.9285l42.1555,79.3504L296.8042,108h161.8743L251.4999,439.5269z
		 M83.1227,129.5079l168.3773,269.4342l168.3782-269.4342H309.7334l-58.2334,109.6151l-58.2334-109.6151H83.1227z"/>
	<polygon points="251.5,299.9433 361.2488,118.7539 303.2687,118.7539 251.5,216.2011 199.8436,118.966 199.7313,118.7539 
		141.7512,118.7539 	"/>
</g>
</svg>
