<?xml version="1.0" encoding="utf-8"?>
<!-- Generator: Adobe Illustrator 25.2.0, SVG Export Plug-In . SVG Version: 6.00 Build 0)  -->
<svg version="1.1" id="Ebene_1" xmlns="http://www.w3.org/2000/svg" xmlns:xlink="http://www.w3.org/1999/xlink" x="0px" y="0px"
	 viewBox="0 0 500 500" style="enable-background:new 0 0 500 500;" xml:space="preserve">
<style type="text/css">
	.st0{opacity:0.5;fill:#95ABBF;enable-background:new    ;}
	.st1{fill:#F44257;}
	.st2{fill:#4D90F4;}
	.st3{fill:#CC213E;}
	.st4{fill:#FFAC2F;}
	.st5{display:none;}
	.st6{display:inline;opacity:0;fill:#3B80FF;}
	.st7{display:inline;opacity:0.25;fill:#3B80FF;}
	.st8{display:inline;fill:#3B80FF;}
	.st9{display:inline;}
	.st10{fill:#3B80FF;}
	.st11{fill:#FFFFFF;}
	.st12{fill:#1765F5;}
	.st13{display:none;fill:#FFFFFF;}
	.st14{opacity:0;}
	.st15{opacity:0.25;}
	.st16{display:none;fill:#EA9126;}
	.st17{fill:#ED9726;}
	.st18{fill:#35495F;}
	.st19{fill:#3EBA70;}
	.st20{opacity:0.5;fill:#B9C0C9;enable-background:new    ;}
	.st21{fill:#C9791B;}
</style>
<g>
	<rect class="st14" width="500" height="500"/>
	<path class="st15" d="M429.853,215.5405h-27.9128c-3.887-16.8558-10.543-32.65-19.4485-46.8934l19.7546-19.7549
		c4.3533-4.3532,4.3533-11.4111,0-15.7643l-33.4993-33.4992c-4.353-4.3532-11.4111-4.3532-15.7642,0l-19.7551,19.7549
		c-14.2434-8.9056-30.0374-15.5615-46.8933-19.4488V72.022c0-6.1563-4.9907-11.147-11.147-11.147h-47.375
		c-6.1562,0-11.147,4.9907-11.147,11.147v27.9127c-16.856,3.8873-32.6499,10.5432-46.8933,19.4488l-19.7551-19.7549
		c-4.353-4.3532-11.4111-4.3532-15.7642,0l-33.4993,33.4992c-4.3533,4.3532-4.3533,11.4111,0,15.7643l19.7546,19.7549
		c-8.9055,14.2434-15.5615,30.0376-19.4485,46.8934H73.147c-6.1562,0-11.147,4.9907-11.147,11.147v47.375
		c0,6.1564,4.9907,11.147,11.147,11.147h27.9128c3.887,16.8558,10.543,32.65,19.4485,46.8934l-19.7546,19.7549
		c-4.3533,4.3532-4.3533,11.4111,0,15.7643l33.4993,33.4992c4.353,4.3532,11.4111,4.3532,15.7642,0l19.7551-19.7549
		c14.2434,8.9056,30.0374,15.5615,46.8933,19.4488v27.9127c0,6.1563,4.9907,11.147,11.147,11.147h47.375
		c6.1562,0,11.147-4.9907,11.147-11.147v-27.9127c16.856-3.8873,32.6499-10.5432,46.8933-19.4488l19.7551,19.7549
		c4.353,4.3532,11.4111,4.3532,15.7642,0l33.4993-33.4992c4.3533-4.3532,4.3533-11.4111,0-15.7643l-19.7546-19.7549
		c8.9055-14.2434,15.5615-30.0376,19.4485-46.8934h27.9128c6.1562,0,11.147-4.9907,11.147-11.147v-47.375
		C441,220.5311,436.0093,215.5405,429.853,215.5405z M251.5,314.25c-35.2771,0-63.875-28.5978-63.875-63.875
		S216.2229,186.5,251.5,186.5s63.875,28.5978,63.875,63.875S286.7771,314.25,251.5,314.25z"/>
	<path d="M275.1875,451.375h-47.375c-12.4883,0-22.6475-10.1592-22.6475-22.647v-19.0269
		c-11.6533-3.3833-22.8828-8.0415-33.5469-13.917l-13.4688,13.4692c-8.8311,8.8301-23.1973,8.8296-32.0283-0.0005l-33.499-33.499
		c-4.2773-4.2769-6.6338-9.9644-6.6338-16.0137c0-6.0498,2.3564-11.7373,6.6348-16.0146l13.4678-13.4683
		c-5.875-10.6641-10.5332-21.8921-13.917-33.5479H73.1475c-12.4883,0-22.6475-10.1592-22.6475-22.647v-47.375
		c0-12.4878,10.1592-22.647,22.6475-22.647h19.0264c3.3838-11.6558,8.042-22.8838,13.917-33.5479l-13.4688-13.4688
		c-4.2773-4.2769-6.6338-9.9644-6.6338-16.0142c0-6.0493,2.3564-11.7368,6.6348-16.0142l33.498-33.4985
		c8.8301-8.8291,23.1973-8.8311,32.0273-0.001l13.4697,13.4697c10.6641-5.8755,21.8936-10.5337,33.5469-13.917V72.022
		c0-12.4878,10.1592-22.647,22.6475-22.647h47.375c12.4883,0,22.6475,10.1592,22.6475,22.647v19.0269
		c11.6533,3.3833,22.8828,8.0415,33.5469,13.917l13.4688-13.4692c8.832-8.8291,23.1982-8.8286,32.0283,0.0005l33.499,33.499
		c4.2773,4.2769,6.6338,9.9644,6.6338,16.0137c0,6.0498-2.3564,11.7373-6.6348,16.0146l-13.4678,13.4683
		c5.875,10.6641,10.5332,21.8921,13.917,33.5479h19.0264c12.4883,0,22.6475,10.1592,22.6475,22.647v47.375
		c0,12.4878-10.1592,22.647-22.6475,22.647h-19.0264c-3.3838,11.6558-8.042,22.8838-13.917,33.5479l13.4688,13.4688
		c4.2773,4.2769,6.6338,9.9644,6.6338,16.0142c0,6.0493-2.3564,11.7368-6.6348,16.0142l-33.498,33.4985
		c-8.8291,8.8296-23.1963,8.8306-32.0273,0.001l-13.4697-13.4697c-10.6641,5.8755-21.8936,10.5337-33.5469,13.917v19.0269
		C297.835,441.2158,287.6758,451.375,275.1875,451.375z M231.165,428.375h40.6699c1.6569,0,3-1.3431,3-3v-33.7095l8.916-2.0562
		c15.3506-3.54,29.9453-9.5938,43.3799-17.9937l7.7588-4.8506l23.8533,23.8537c1.1716,1.1716,3.0711,1.1716,4.2427,0
		l28.7574-28.7578c1.1716-1.1716,1.1716-3.071,0-4.2426l-23.8533-23.8538l4.8506-7.7588
		c8.3994-13.4321,14.4531-28.0278,17.9941-43.3809l2.0566-8.9155H426.5c1.6569,0,3-1.3431,3-3v-40.6689c0-1.6569-1.3431-3-3-3
		h-33.709l-2.0566-8.9155c-3.541-15.353-9.5947-29.9487-17.9941-43.3809l-4.8506-7.7588l23.8542-23.8542
		c1.1716-1.1716,1.1716-3.0711,0-4.2427l-28.7583-28.7574c-1.1716-1.1715-3.0711-1.1715-4.2426,0.0001l-23.8533,23.8538
		l-7.7588-4.8506c-13.4346-8.3999-28.0293-14.4536-43.3799-17.9937l-8.916-2.0562V75.375c0-1.6569-1.3431-3-3-3H231.165
		c-1.6569,0-3,1.3431-3,3v33.7095l-8.916,2.0562c-15.3506,3.54-29.9453,9.5938-43.3799,17.9937l-7.7588,4.8506l-23.8533-23.8537
		c-1.1716-1.1716-3.0711-1.1716-4.2427,0l-28.7574,28.7578c-1.1715,1.1716-1.1716,3.071,0,4.2426l23.8533,23.8538l-4.8506,7.7588
		c-8.3994,13.4321-14.4531,28.0278-17.9941,43.3809l-2.0566,8.9155H76.5c-1.6569,0-3,1.3431-3,3v40.6689c0,1.6569,1.3431,3,3,3
		h33.709l2.0566,8.9155c3.541,15.353,9.5947,29.9487,17.9941,43.3809l4.8506,7.7588l-23.8542,23.8542
		c-1.1716,1.1716-1.1716,3.0711,0,4.2426l28.7583,28.7574c1.1716,1.1715,3.0711,1.1715,4.2426-0.0001l23.8533-23.8538l7.7588,4.8506
		c13.4346,8.3999,28.0293,14.4536,43.3799,17.9937l8.916,2.0562v33.7095C228.165,427.0319,229.5082,428.375,231.165,428.375z"/>
	<path d="M251.5,325.75c-41.5615,0-75.375-33.813-75.375-75.375S209.9385,175,251.5,175s75.375,33.813,75.375,75.375
		S293.0615,325.75,251.5,325.75z M251.5,198c-28.8799,0-52.375,23.4951-52.375,52.375s23.4951,52.375,52.375,52.375
		s52.375-23.4951,52.375-52.375S280.3799,198,251.5,198z"/>
</g>
</svg>
