<svg xmlns="http://www.w3.org/2000/svg" width="36" height="40.9" viewBox="0 0 36 40.9"><path d="M266.768,180.6l-16.148-9.312a2.051,2.051,0,0,0-1.846,0l-16.154,9.321a2.047,2.047,0,0,0-.923,1.6l0,18.63a2.042,2.042,0,0,0,.923,1.6l16.148,9.312a2.046,2.046,0,0,0,1.846,0l16.154-9.321a2.047,2.047,0,0,0,.923-1.6l.006-18.631A2.047,2.047,0,0,0,266.768,180.6Zm-32.595,14.125,5.958-3.312-5.956-3.309v-4.3l13.35,7.711-13.353,7.714ZM235.2,201.1l3.815-2.2,5.839,3.5-.114-6.807,3.81-2.2,0,15.42Zm0-19.168,13.355-7.71v4.406l-5.952,3.307,5.952,3.305v4.4Zm15.572-7.712,3.816,2.2-.112,6.808,5.838-3.5,3.811,2.2-13.353,7.713Zm9.533,29.082-5.92-3.551.114,6.9-3.727,2.152V193.392l13.344,7.707Zm1.155-6.261.112-6.875-5.9,3.533-3.785-2.186,13.352-7.705,0,15.421Z" transform="translate(-231.691 -171.066)" fill-rule="evenodd"/></svg>