<svg xmlns="http://www.w3.org/2000/svg" xmlns:xlink="http://www.w3.org/1999/xlink" width="44.373" height="50.412" viewBox="0 0 44.373 50.412"><defs><linearGradient id="a" x1="0.249" y1="0.889" x2="1" y2="0.5" gradientUnits="objectBoundingBox"><stop offset="0" stop-color="#3d4aaf"/><stop offset="1" stop-color="#5363de"/></linearGradient></defs><path d="M274.926,182.814l-19.9-11.478a2.528,2.528,0,0,0-2.276,0l-19.912,11.489A2.523,2.523,0,0,0,231.7,184.8l-.005,22.963a2.517,2.517,0,0,0,1.137,1.97l19.9,11.478a2.522,2.522,0,0,0,2.275,0l19.912-11.489a2.524,2.524,0,0,0,1.138-1.971l.007-22.964A2.523,2.523,0,0,0,274.926,182.814Zm-40.176,17.41,7.343-4.082-7.341-4.079v-5.3l16.455,9.5-16.459,9.508Zm1.268,7.86,4.7-2.716,7.2,4.315-.14-8.39,4.7-2.712,0,19.007Zm0-23.627,16.461-9.5v5.43l-7.336,4.076,7.337,4.074v5.424Zm19.194-9.506,4.7,2.715-.138,8.391,7.2-4.317,4.7,2.712-16.459,9.507Zm11.75,35.846-7.3-4.377.141,8.51-4.594,2.653v-19l16.448,9.5Zm1.423-7.717.138-8.474-7.267,4.355-4.666-2.695,16.457-9.5,0,19.008Z" transform="translate(-231.691 -171.066)" fill-rule="evenodd" fill="url(#a)"/></svg>