<?xml version="1.0" encoding="utf-8"?>
<!-- Generator: Adobe Illustrator 25.4.1, SVG Export Plug-In . SVG Version: 6.00 Build 0)  -->
<svg version="1.1" id="Ebene_1" xmlns="http://www.w3.org/2000/svg" xmlns:xlink="http://www.w3.org/1999/xlink" x="0px" y="0px"
	 viewBox="0 0 500 500" style="enable-background:new 0 0 500 500;" xml:space="preserve">
<style type="text/css">
	.st0{opacity:0.8;fill:#EABC60;enable-background:new    ;}
	.st1{fill:#EABC60;}
</style>
<path id="Path_31" class="st0" d="M465.3454,130.35542v272.17731c0,5.50476-4.46249,9.96729-9.96729,9.96729l0,0H44.62801
	c-5.50478,0.00339-9.97002-4.45636-9.97341-9.96115c0-0.00204,0-0.00409,0-0.00613V93.47341
	c0-5.50816,4.46525-9.97341,9.97342-9.97341c0,0,0,0,0,0h178.98782c3.39592,0.00005,6.55815,1.72911,8.39091,4.58801
	l20.71967,32.30013h202.6517C460.8815,120.39153,465.34204,124.85204,465.3454,130.35542z"/>
<path class="st1" d="M252.72643,120.38815h146.65349l-9.85333-15.35883c-1.83344-2.85742-4.99591-4.58429-8.39093-4.58191H239.93498
	L252.72643,120.38815z"/>
</svg>
