<?xml version="1.0" encoding="utf-8"?>
<!-- Generator: Adobe Illustrator 25.4.1, SVG Export Plug-In . SVG Version: 6.00 Build 0)  -->
<svg version="1.1" id="Ebene_1" xmlns="http://www.w3.org/2000/svg" xmlns:xlink="http://www.w3.org/1999/xlink" x="0px" y="0px"
	 viewBox="0 0 500 500" style="enable-background:new 0 0 500 500;" xml:space="preserve">
<style type="text/css">
	.st0{opacity:0.8;fill:#3B80FA;enable-background:new    ;}
	.st1{fill:#3B80FA;}
</style>
<path id="Path_31" class="st0" d="M465.3,130.4v272.2c0,5.5-4.5,10-10,10l0,0H44.6c-5.5,0-10-4.5-10-10c0,0,0,0,0,0V93.5
	c0-5.5,4.5-10,10-10c0,0,0,0,0,0h179c3.4,0,6.6,1.7,8.4,4.6l20.7,32.3h202.7C460.9,120.4,465.3,124.9,465.3,130.4z"/>
<path class="st1" d="M252.7,120.4h146.7l-9.9-15.4c-1.8-2.9-5-4.6-8.4-4.6H239.9L252.7,120.4z"/>
</svg>
