<?xml version="1.0" encoding="utf-8"?>
<!-- Generator: Adobe Illustrator 25.0.1, SVG Export Plug-In . SVG Version: 6.00 Build 0)  -->
<svg version="1.1" id="Ebene_1" xmlns="http://www.w3.org/2000/svg" xmlns:xlink="http://www.w3.org/1999/xlink" x="0px" y="0px"
	 viewBox="0 0 500 500" style="enable-background:new 0 0 500 500;" xml:space="preserve">
<style type="text/css">
	.st0{fill:#1765F5;}
	.st1{fill:#4D90F4;}
	.st2{display:none;fill:#FFFFFF;}
	.st3{fill:#FFAC2F;}
	.st4{fill:#ED9726;}
	.st5{fill:#FFFFFF;}
</style>
<g>
	<path class="st1" d="M430.8621,140.1092H205.3592l-25.6403-39.8859c-3.3247-5.1718-9.0521-8.298-15.2001-8.298H71.9935
		c-19.9585,0-36.1379,16.1794-36.1379,36.1379v42.422c-0.3029,1.8807-0.5014,3.7958-0.5014,5.7618v210.6706
		c0,19.9583,16.1794,36.1379,36.1379,36.1379h359.3701c19.9585,0,36.1379-16.1796,36.1379-36.1379V176.2471
		C467,156.2886,450.8206,140.1092,430.8621,140.1092z"/>
	<path class="st0" d="M164.5186,91.9254c6.1482,0,11.8755,3.1262,15.2001,8.2979l25.6408,39.8858h118.727l-26.4264-40.1199
		c-3.3246-5.1718-9.0524-8.298-15.2001-8.298H162.6511c-1.3765,0-2.7331,0.0843-4.0696,0.2342H164.5186z"/>
</g>
</svg>
