<?xml version="1.0" encoding="utf-8"?>
<!-- Generator: Adobe Illustrator 25.0.1, SVG Export Plug-In . SVG Version: 6.00 Build 0)  -->
<svg version="1.1" id="Layer_1" xmlns="http://www.w3.org/2000/svg" xmlns:xlink="http://www.w3.org/1999/xlink" x="0px" y="0px"
	 viewBox="0 0 400 400" style="enable-background:new 0 0 400 400;" xml:space="preserve">
<style type="text/css">
	.st0{fill:#1F2639;}
	.st1{fill:#232D44;}
	.st2{display:none;fill:#1F2639;}
	.st3{fill:#FFFFFF;}
	.st4{fill:#4D90F4;}
</style>
<g id="Ebene_1_1_">
	<polygon class="st0" points="177.0324,84.3527 205.8669,91.3095 183.9892,55.5182 	"/>
	<path class="st1" d="M183.9892,55.5182l-29.6138-7.1448c-3.766-0.9086-7.5556,1.4078-8.4642,5.1738l-17.5329,72.6708
		c-0.9086,3.766,1.4078,7.5555,5.1738,8.4642l51.6294,12.4563c3.766,0.9086,7.5555-1.4078,8.4642-5.1738l12.2213-50.6553
		l-18.6045-4.4886c-5.6499-1.3631-9.125-7.0483-7.7619-12.6981L183.9892,55.5182L183.9892,55.5182z"/>
	<path class="st2" d="M165.2189,80.7708l-8.7502-2.1111c-1.6449-0.3969-2.6567-2.0521-2.2598-3.697l0,0
		c0.3969-1.645,2.0521-2.6567,3.697-2.2598l8.7502,2.1111c1.6449,0.3969,2.6567,2.0521,2.2598,3.697l0,0
		C168.5191,80.1559,166.8639,81.1676,165.2189,80.7708z"/>
</g>
<path class="st3" d="M334,242.5c0-18.5038-10.5876-34.5247-26.0287-42.3662C307.9785,199.7553,308,199.3802,308,199
	c0-32.0325-25.9675-58-58-58c-2.7445,0-5.4402,0.2043-8.0832,0.573C229.6306,124.8563,209.8367,114,187.5,114
	c-37.2792,0-67.5,30.2208-67.5,67.5c0,0.0562,0.0041,0.1115,0.0042,0.1677C99.9966,190.3635,86,210.293,86,233.5
	c0,31.2041,25.2959,56.5,56.5,56.5c0.1677,0,0.3326-0.0112,0.5-0.0126V290h144v-0.0126C313.0021,289.7178,334,268.5659,334,242.5z"
	/>
<path class="st1" d="M69.3742,145.4031l42.3422,0.2718c2.9852,0.0192,5.1398,2.8647,4.3487,5.7433l-13.4789,49.0424l-0.0035-0.001
	c-1.154,4.5526-6.17,7.9582-12.1621,7.9197c-6.8203-0.0438-12.3207-4.5322-12.2854-10.0251s5.5928-9.9103,12.4131-9.8665
	c3.0983,0.0199,5.9218,0.9591,8.0801,2.4908l7.491-27.2556l-38.7352-0.2486l-9.5904,34.8945l-0.0074-0.002
	c-1.2261,4.4762-6.1959,7.806-12.1212,7.768c-6.8203-0.0438-12.3207-4.5322-12.2854-10.0251s5.5928-9.9103,12.4131-9.8665
	c3.1002,0.0199,5.9254,0.9603,8.0842,2.4938l11.093-40.0069C65.518,146.7536,67.3231,145.3899,69.3742,145.4031z"/>
<g id="Ebene_1_5_">
	<polygon class="st0" points="328.9748,202.9696 352.5916,196.8842 322.8894,179.3527 	"/>
	<path class="st1" d="M322.8894,179.3527l-24.2551,6.2498c-3.0846,0.7948-4.9408,3.9396-4.146,7.0242l15.3367,59.5209
		c0.7948,3.0845,3.9396,4.9408,7.0242,4.146l42.287-10.896c3.0845-0.7948,4.9408-3.9396,4.146-7.0242l-10.6905-41.4891
		l-15.238,3.9264c-4.6275,1.1924-9.3455-1.5924-10.5378-6.2199L322.8894,179.3527L322.8894,179.3527z"/>
	<path class="st2" d="M319.0164,204.9315l-7.1668,1.8467c-1.3473,0.3472-2.7209-0.4636-3.0681-1.8109v0
		c-0.3472-1.3473,0.4636-2.7209,1.8109-3.068l7.1668-1.8467c1.3473-0.3472,2.7209,0.4636,3.068,1.8109l0,0
		C321.1744,203.2108,320.3636,204.5844,319.0164,204.9315z"/>
</g>
<path class="st1" d="M259.4578,91.4183l21.3543-13.2154c1.5055-0.9317,3.4851-0.1818,3.9954,1.5136l8.6942,28.8845l-0.0021,0.0006
	c0.856,2.6507-0.5897,5.943-3.6117,7.8132c-3.4397,2.1287-7.6179,1.6086-9.3322-1.1616c-1.7144-2.7702-0.3158-6.7416,3.1239-8.8703
	c1.5625-0.967,3.2769-1.3856,4.8441-1.2968l-4.8319-16.0528l-19.5352,12.0896l6.1861,20.5518l-0.0043,0.0013
	c0.7957,2.635-0.6507,5.8748-3.639,7.7241c-3.4397,2.1287-7.6179,1.6086-9.3322-1.1616c-1.7144-2.7702-0.3158-6.7416,3.1239-8.8703
	c1.5635-0.9676,3.2791-1.3861,4.8471-1.2966l-7.0435-23.5936C257.9467,93.3126,258.4234,92.0584,259.4578,91.4183z"/>
</svg>
