<?xml version="1.0" encoding="utf-8"?>
<!-- Generator: Adobe Illustrator 25.2.0, SVG Export Plug-In . SVG Version: 6.00 Build 0)  -->
<svg version="1.1" id="Ebene_1" xmlns="http://www.w3.org/2000/svg" xmlns:xlink="http://www.w3.org/1999/xlink" x="0px" y="0px"
	 viewBox="0 0 500 500" style="enable-background:new 0 0 500 500;" xml:space="preserve">
<style type="text/css">
	.st0{opacity:0.5;fill:#95ABBF;enable-background:new    ;}
	.st1{fill:#F44257;}
	.st2{fill:#4D90F4;}
	.st3{fill:#CC213E;}
	.st4{fill:#FFAC2F;}
	.st5{display:none;}
	.st6{display:inline;opacity:0;fill:#3B80FF;}
	.st7{display:inline;opacity:0.25;fill:#3B80FF;}
	.st8{display:inline;fill:#3B80FF;}
	.st9{display:inline;}
	.st10{fill:#3B80FF;}
	.st11{fill:#FFFFFF;}
	.st12{fill:#1765F5;}
	.st13{display:none;fill:#FFFFFF;}
	.st14{opacity:0;}
	.st15{opacity:0.25;}
	.st16{display:none;fill:#EA9126;}
	.st17{fill:#ED9726;}
	.st18{fill:#35495F;}
	.st19{fill:#3EBA70;}
	.st20{opacity:0.5;fill:#B9C0C9;enable-background:new    ;}
	.st21{fill:#C9791B;}
</style>
<g>
	<rect class="st14" width="500" height="500"/>
	<path class="st15" d="M418.755,153.8209L347.6939,89.792C341.26,83.9948,331,88.5607,331,97.2211V124.25H89
		c-5.5228,0-10,4.4772-10,10v53c0,5.5228,4.4772,10,10,10h242v28.0289c0,8.6604,10.26,13.2263,16.6939,7.4291l71.0611-64.0289
		C423.1631,164.7072,423.1631,157.7928,418.755,153.8209z"/>
	<path class="st15" d="M417,301.75H175v-26.0289c0-8.6604-10.26-13.2263-16.6939-7.4291L87.245,332.3209
		c-4.4081,3.9719-4.4081,10.8863,0,14.8582l71.0611,64.0289C164.74,417.0052,175,412.4393,175,403.7789V375.75h242
		c5.5228,0,10-4.4772,10-10v-54C427,306.2272,422.5228,301.75,417,301.75z"/>
	<path d="M341.085,246.8213c-2.9629,0-5.9609-0.624-8.8271-1.8999c-7.8691-3.502-12.7578-11.0288-12.7578-19.6426V208.75H89
		c-11.855,0-21.5-9.645-21.5-21.5v-53c0-11.855,9.645-21.5,21.5-21.5h230.5V97.2212c0-8.6138,4.8887-16.1406,12.7578-19.6426
		c7.8711-3.5024,16.7334-2.0962,23.1338,3.6694l71.0615,64.0293c4.5176,4.0708,7.1074,9.8921,7.1074,15.9727
		s-2.5898,11.9019-7.1074,15.9727l-71.0605,64.0288C351.3232,244.9175,346.2568,246.8213,341.085,246.8213z M93.5,185.75h249
		v29.4174c0,2.5981,3.078,3.9679,5.0082,2.2287l59.8387-53.9174c1.3224-1.1916,1.3224-3.2659,0-4.4575l-59.8387-53.9174
		c-1.9302-1.7392-5.0082-0.3694-5.0082,2.2287V136.75l-249-1c-1.6569,0-3,2.3431-3,4v43C90.5,184.4069,91.8431,185.75,93.5,185.75z
		 M411.0498,162.3579c0.002,0.002,0.0049,0.0039,0.0068,0.0063L411.0498,162.3579z"/>
	<path d="M164.9155,425.3213c-5.1729,0.0005-10.2383-1.9033-14.3071-5.5698l-71.0615-64.0288
		c-4.5171-4.0708-7.1079-9.8921-7.1079-15.9727s2.5908-11.9019,7.1079-15.9727l71.0615-64.0288
		c6.3979-5.7671,15.2632-7.1729,23.1328-3.6704c7.8701,3.5024,12.7588,11.0288,12.7588,19.6431V290.25H417
		c11.8555,0,21.5,9.645,21.5,21.5v54c0,11.855-9.6445,21.5-21.5,21.5H186.5v16.5288c0,8.6143-4.8887,16.1406-12.7588,19.6431
		C170.876,424.6973,167.8779,425.3213,164.9155,425.3213z M98.6532,341.9787l59.8386,53.9169
		c1.9302,1.7391,5.0082,0.3694,5.0082-2.2288V364.25h249c1.6569,0,3-1.3431,3-3v-45c0-1.6569-1.3431-3-3-3h-249v-27.4169
		c0-2.5981-3.078-3.9679-5.0082-2.2288l-59.8386,53.9169C97.3308,338.7128,97.3308,340.7872,98.6532,341.9787z"/>
</g>
<g class="st5">
	<rect class="st6" width="500" height="500"/>
	<polygon class="st7" points="469.7225,217 340.3256,80.0673 340.3256,158.8369 36,158.8369 36,217 	"/>
	<polygon class="st7" points="36,267 165.397,403.9327 165.397,325.1631 469.7225,325.1631 469.7225,267 	"/>
	<path class="st8" d="M495.252,228H25v-80.1631h304.3252V52.4111L495.252,228z M47,206h397.1934l-92.8682-98.2764v62.1133H47V206z"
		/>
	<path class="st8" d="M176.397,431.5889L10.4712,256h470.2515v80.1631H176.397V431.5889z M61.5288,278l92.8682,98.2764v-62.1133
		h304.3257V278H61.5288z"/>
</g>
</svg>
