<?xml version="1.0" encoding="utf-8"?>
<!-- Generator: Adobe Illustrator 25.2.0, SVG Export Plug-In . SVG Version: 6.00 Build 0)  -->
<svg version="1.1" id="Ebene_1" xmlns="http://www.w3.org/2000/svg" xmlns:xlink="http://www.w3.org/1999/xlink" x="0px" y="0px"
	 viewBox="0 0 500 500" style="enable-background:new 0 0 500 500;" xml:space="preserve">
<style type="text/css">
	.st0{opacity:0.5;fill:#95ABBF;enable-background:new    ;}
	.st1{fill:#F44257;}
	.st2{fill:#4D90F4;}
	.st3{fill:#CC213E;}
	.st4{fill:#FFAC2F;}
	.st5{display:none;}
	.st6{display:inline;opacity:0;fill:#3B80FF;}
	.st7{display:inline;opacity:0.25;fill:#3B80FF;}
	.st8{display:inline;fill:#3B80FF;}
	.st9{display:inline;}
	.st10{fill:#3B80FF;}
	.st11{fill:#FFFFFF;}
	.st12{fill:#1765F5;}
	.st13{display:none;fill:#FFFFFF;}
	.st14{opacity:0;}
	.st15{opacity:0.25;}
	.st16{display:none;fill:#EA9126;}
	.st17{fill:#ED9726;}
	.st18{fill:#35495F;}
	.st19{fill:#3EBA70;}
	.st20{opacity:0.5;fill:#B9C0C9;enable-background:new    ;}
	.st21{fill:#C9791B;}
</style>
<g id="Group_37" transform="translate(-539 -445)">
	<rect x="539" y="445" class="st14" width="500" height="500"/>
	<path class="st15" d="M962.291,588.6455H791.3587l-17.9194-27.9335c-1.5858-2.4715-4.3204-3.9659-7.2567-3.9659H615.709
		c-7.1422,0-12.9322,5.7899-12.9322,12.9322v18.9672v13.7943v225.8818c0,7.1423,5.79,12.9322,12.9322,12.9322h346.582
		c7.1422,0,12.9322-5.7899,12.9322-12.9322v-226.744C975.2232,594.4354,969.4332,588.6455,962.291,588.6455z"/>
	<path d="M962.291,577.8687h-46.9363l-5.8127-9.0608c-2.4096-3.7558-6.5654-6.0269-11.0277-6.0267H787.5704l-5.0617-7.8898
		c-3.585-5.5867-9.6882-8.922-16.326-8.922H615.709c-13.0736,0-23.709,10.6358-23.709,23.709v258.6433
		c0,13.0732,10.6354,23.709,23.709,23.709h346.582c13.0736,0,23.709-10.6358,23.709-23.709v-226.744
		C986,588.5045,975.3646,577.8687,962.291,577.8687z M964.4464,828.3217c0,1.1884-0.9666,2.1554-2.1554,2.1554H615.709
		c-1.1888,0-2.1554-0.967-2.1554-2.1554V569.6783c0-1.1884,0.9666-2.1554,2.1554-2.1554h149.2958l20.4642,31.8994H962.291
		c1.1888,0,2.1554,0.967,2.1554,2.1554V828.3217z"/>
</g>
</svg>
