<?xml version="1.0" encoding="utf-8"?>
<!-- Generator: Adobe Illustrator 25.2.0, SVG Export Plug-In . SVG Version: 6.00 Build 0)  -->
<svg version="1.1" id="Ebene_1" xmlns="http://www.w3.org/2000/svg" xmlns:xlink="http://www.w3.org/1999/xlink" x="0px" y="0px"
	 viewBox="0 0 500 500" style="enable-background:new 0 0 500 500;" xml:space="preserve">
<style type="text/css">
	.st0{opacity:0.5;fill:#95ABBF;enable-background:new    ;}
	.st1{fill:#F44257;}
	.st2{fill:#4D90F4;}
	.st3{fill:#CC213E;}
	.st4{fill:#FFAC2F;}
	.st5{display:none;}
	.st6{display:inline;opacity:0;fill:#3B80FF;}
	.st7{display:inline;opacity:0.25;fill:#3B80FF;}
	.st8{display:inline;fill:#3B80FF;}
	.st9{display:inline;}
	.st10{fill:#3B80FF;}
	.st11{fill:#FFFFFF;}
	.st12{fill:#1765F5;}
	.st13{display:none;fill:#FFFFFF;}
	.st14{opacity:0;}
	.st15{opacity:0.25;}
	.st16{display:none;fill:#EA9126;}
	.st17{fill:#ED9726;}
	.st18{fill:#35495F;}
	.st19{fill:#3EBA70;}
	.st20{opacity:0.5;fill:#B9C0C9;enable-background:new    ;}
	.st21{fill:#C9791B;}
</style>
<g>
	<rect class="st14" width="500" height="500"/>
	<path class="st15" d="M413.2114,399H89.7886c-8.2843,0-15-6.7157-15-15V123c0-8.2843,6.7157-15,15-15h323.4227
		c8.2843,0,15,6.7157,15,15v261C428.2114,392.2843,421.4956,399,413.2114,399z"/>
	<path d="M365.8964,258.68h-12.32v-27.5225c10.2399-2.7221,17.7955-12.0297,17.7955-23.1264v-36.2755
		c0-2.2681-1.8388-4.1067-4.1067-4.1067h-39.6977c-2.2679,0-4.1067,1.8386-4.1067,4.1067v36.2755
		c0,11.0966,7.5556,20.4043,17.7955,23.1264V258.68h-12.32c-3.4022,0-6.16,2.7578-6.16,6.16c0,3.4022,2.7578,6.16,6.16,6.16h36.96
		c3.4022,0,6.16-2.7578,6.16-6.16C372.0564,261.4378,369.2986,258.68,365.8964,258.68z"/>
	<path d="M287.8698,270.3156h-67.7599c-3.4022,0-6.16-2.7578-6.16-6.16c0-3.4022,2.7578-6.16,6.16-6.16h67.7599
		c3.4022,0,6.16,2.7578,6.16,6.16C294.0298,267.5577,291.272,270.3156,287.8698,270.3156z"/>
	<path d="M237.2658,171.9276c-1.3809-3.4306-6.2375-3.4306-7.6184,0l-12.2057,30.3155c-1.0862,2.6987,0.9003,5.6404,3.8099,5.6404
		h6.045v31.6321c0,3.4022,2.7578,6.16,6.16,6.16c3.4022,0,6.16-2.7578,6.16-6.16v-31.6321h6.045
		c2.9096,0,4.896-2.9417,3.8099-5.6404L237.2658,171.9276z"/>
	<path d="M290.5381,201.7064l-12.2057-30.3155c-1.3809-3.4306-6.2375-3.4306-7.6184,0l-12.2057,30.3155
		c-1.0862,2.6988,0.9004,5.6404,3.8099,5.6404h5.9902v32.0245c0,3.4022,2.7578,6.16,6.16,6.16s6.16-2.7578,6.16-6.16v-32.0245
		h6.0999C289.6378,207.3468,291.6242,204.4051,290.5381,201.7064z"/>
	<path d="M193.3799,204.9125c-2.326-19.1016-17.3577-33.8413-35.5543-33.8413s-33.2283,14.7397-35.5543,33.8413
		c-0.3335,2.7406,1.655,5.172,4.1962,5.172H152.35v33.001c0,4.1515-3.3768,7.5289-7.5289,7.5289c-3.4022,0-6.16,2.7578-6.16,6.16
		c0,3.4022,2.7578,6.16,6.16,6.16c10.9444,0,19.8489-8.9044,19.8489-19.8489v-33.001h24.5136
		C191.7249,210.0845,193.7134,207.6531,193.3799,204.9125z"/>
	<path d="M413.2109,410H89.7891c-14.3359,0-26-11.6636-26-26V123c0-14.3364,11.6641-26,26-26h323.4219c14.3359,0,26,11.6636,26,26
		v261C439.2109,398.3364,427.5469,410,413.2109,410z M89.7891,119c-2.2061,0-4,1.7944-4,4v261c0,2.2056,1.7939,4,4,4h323.4219
		c2.2061,0,4-1.7944,4-4V123c0-2.2056-1.7939-4-4-4H89.7891z"/>
</g>
</svg>
