<?xml version="1.0" encoding="utf-8"?>
<!-- Generator: Adobe Illustrator 25.2.0, SVG Export Plug-In . SVG Version: 6.00 Build 0)  -->
<svg version="1.1" id="Ebene_1" xmlns="http://www.w3.org/2000/svg" xmlns:xlink="http://www.w3.org/1999/xlink" x="0px" y="0px"
	 viewBox="0 0 500 500" style="enable-background:new 0 0 500 500;" xml:space="preserve">
<style type="text/css">
	.st0{opacity:0.5;fill:#95ABBF;enable-background:new    ;}
	.st1{fill:#F44257;}
	.st2{fill:#4D90F4;}
	.st3{fill:#CC213E;}
	.st4{fill:#FFAC2F;}
	.st5{display:none;}
	.st6{display:inline;opacity:0;fill:#3B80FF;}
	.st7{display:inline;opacity:0.25;fill:#3B80FF;}
	.st8{display:inline;fill:#3B80FF;}
	.st9{display:inline;}
	.st10{fill:#3B80FF;}
	.st11{fill:#FFFFFF;}
	.st12{fill:#1765F5;}
	.st13{display:none;fill:#FFFFFF;}
	.st14{opacity:0;}
	.st15{opacity:0.25;}
	.st16{display:none;fill:#EA9126;}
	.st17{fill:#ED9726;}
	.st18{fill:#35495F;}
	.st19{fill:#3EBA70;}
	.st20{opacity:0.5;fill:#B9C0C9;enable-background:new    ;}
	.st21{fill:#C9791B;}
</style>
<g id="Ebene_1_13_">
	<path class="st0" d="M389,354.6163c0,15.7401-12.7598,28.4999-28.4999,28.4999h-21.2413c-24.2705,0-47.2939-10.5303-63.167-28.8896
		L136.3716,192.6108c-5.0376-5.8267-12.3447-9.1689-20.0474-9.1689H55.9999c-15.7401,0-28.4999-12.7598-28.4999-28.4999v-0.0002
		c0-15.7401,12.7598-28.4999,28.4999-28.4999h60.3243c24.27,0,47.2935,10.5303,63.167,28.8901l139.7197,161.6162
		c5.0381,5.8262,12.3447,9.168,20.0479,9.168h21.2413c15.7401,0,28.4999,12.7598,28.4999,28.4999L389,354.6163L389,354.6163z"/>
	<path class="st1" d="M466.7079,138.7545l-57.4492-51.1088c-12.9009-11.4772-33.3051-2.3112-33.2935,14.9561l0.0161,23.8401H341.46
		c-24.2705,0-47.2949,10.5303-63.167,28.8906L138.5737,316.9473c-5.0386,5.8271-12.3452,9.1689-20.0479,9.1689H56.1356
		c-15.7401,0-28.4999,12.7598-28.4999,28.4999v0.0002c0,15.7401,12.7598,28.4999,28.4999,28.4999h62.3903
		c24.2695,0,47.2925-10.5293,63.167-28.8906l139.7192-161.6147c5.0381-5.8271,12.3447-9.1689,20.0479-9.1689h34.5204
		l-0.0151,22.5126c-0.0116,17.2673,20.3927,26.4332,33.2936,14.956l57.449-51.1094
		C473.5828,160.5942,473.5828,147.9614,466.7079,138.7545z"/>
	<circle class="st0" cx="443.5" cy="354.5" r="28.5"/>
</g>
</svg>
