<?xml version="1.0" encoding="utf-8"?>
<!-- Generator: Adobe Illustrator 25.1.0, SVG Export Plug-In . SVG Version: 6.00 Build 0)  -->
<svg version="1.1" id="Ebene_1" xmlns="http://www.w3.org/2000/svg" xmlns:xlink="http://www.w3.org/1999/xlink" x="0px" y="0px"
	 viewBox="0 0 500 500" style="enable-background:new 0 0 500 500;" xml:space="preserve">
<style type="text/css">
	.st0{opacity:0.5;fill:#95ABBF;enable-background:new    ;}
	.st1{fill:#F44257;}
	.st2{fill:#4D90F4;}
	.st3{fill:#CC213E;}
	.st4{fill:#FFAC2F;}
	.st5{fill:#FFFFFF;}
	.st6{fill:#1765F5;}
	.st7{display:none;fill:#FFFFFF;}
	.st8{display:none;fill:#EA9126;}
	.st9{fill:#ED9726;}
	.st10{fill:#35495F;}
	.st11{fill:#3EBA70;}
	.st12{opacity:0.5;fill:#B9C0C9;enable-background:new    ;}
	.st13{fill:#C9791B;}
</style>
<g id="Ebene_1_7_">
	<path class="st4" d="M78.013,372.5739c-2.1467,9.6804,3.0032,19.5106,12.2497,23.0909
		c41.1827,15.9464,87.2261,24.8672,135.8176,24.8672c48.822,0,95.0706-9.0068,136.4018-25.0961
		c9.234-3.5945,14.369-13.4214,12.2162-23.0936c-20.2574-91.0123-78.9981-156.8316-148.3165-156.8316
		C157.0047,215.5108,98.2225,281.4415,78.013,372.5739z"/>
	<path class="st8" d="M374.7326,372.4958c-20.0789-90.4296-78.1439-156.014-146.8433-156.9621v56.6595
		c0,0,43.9728,54.4892,62.1306,143.0405c25.3582-4.2335,49.6245-10.9186,72.3923-19.7712
		C371.6152,391.8841,376.8729,382.1353,374.7326,372.4958z"/>
	<path class="st9" d="M227.062,215.5208l0.8274,56.6724c0,0,79.7151-6.7573,122.4128,32.5247
		C321.9517,250.7411,277.3184,215.8337,227.062,215.5208z"/>
	<circle class="st4" cx="221.8593" cy="179.3305" r="92.8626"/>
	<path class="st0" d="M448.8846,329.5851c-13.9185-45.1253-38.4912-81.7803-69.0609-103.1988
		c12.0078-14.762,19.2191-33.5811,19.2195-54.0944c0.0008-47.2964-38.3699-85.7389-85.6662-85.8238
		c-10.1631-0.0182-19.9087,1.7441-28.9605,4.9693c4.8364,3.4578,9.425,7.3348,13.7131,11.6229
		c20.3726,20.3725,31.5923,47.4592,31.5923,76.2703c0,9.1645-1.1494,18.15-3.3535,26.8047
		c-0.3157,1.2391-0.6538,2.4711-1.0127,3.6961l-0.0724,0.2445c-0.2931,0.9897-0.8242,2.6775-1.1527,3.6559
		c-0.0014,0.0041-0.0027,0.0082-0.0041,0.0123c-0.365,1.0897-0.7495,2.1722-1.1492,3.2489
		c-0.0574,0.1548-0.1138,0.3101-0.1721,0.4646c-0.3796,1.0084-0.7778,2.0093-1.1877,3.0055
		c-0.0869,0.2104-0.1707,0.4219-0.2588,0.6318c-0.3899,0.9302-0.7981,1.8527-1.2141,2.7717
		c-0.1182,0.2603-0.2314,0.5225-0.3518,0.7819c-0.4009,0.8668-0.8206,1.7251-1.2454,2.5812
		c-0.1455,0.2934-0.2847,0.5898-0.4331,0.8819c-0.4299,0.8473-0.8794,1.6854-1.3325,2.5216
		c-0.1531,0.2823-0.2979,0.5685-0.4536,0.8495c-0.6106,1.1031-1.2395,2.197-1.8904,3.2796
		c6.095,5.1677,11.9702,10.8785,17.594,17.125c1.0112,1.1234,2.0103,2.2662,3.002,3.4199l0,0
		c12.8596,14.9576,24.071,32.4456,33.3572,52.0576c10.0432,21.2108,17.6064,44.4229,22.4795,68.9912
		c0.417,2.1021,0.5552,4.2032,0.4797,6.2735c18.0557-9.0096,34.9316-19.4432,50.3823-31.1227
		C448.4786,346.4075,451.3771,337.666,448.8846,329.5851z"/>
</g>
</svg>
