<?xml version="1.0" encoding="utf-8"?>
<!-- Generator: Adobe Illustrator 25.0.1, SVG Export Plug-In . SVG Version: 6.00 Build 0)  -->
<svg version="1.1" id="Ebene_1" xmlns="http://www.w3.org/2000/svg" xmlns:xlink="http://www.w3.org/1999/xlink" x="0px" y="0px"
	 viewBox="0 0 500 500" style="enable-background:new 0 0 500 500;" xml:space="preserve">
<style type="text/css">
	.st0{opacity:0.5;fill:#B9C0C9;enable-background:new    ;}
	.st1{fill:#F44257;}
	.st2{fill:#4D90F4;}
	.st3{fill:#CC213E;}
	.st4{fill:#FFAC2F;}
	.st5{fill:#FFFFFF;}
	.st6{fill:#1765F5;}
	.st7{display:none;fill:#FFFFFF;}
	.st8{display:none;fill:#EA9126;}
	.st9{fill:#ED9726;}
	.st10{fill:#35495F;}
	.st11{fill:#3EBA70;}
	.st12{fill:#C9791B;}
</style>
<g id="Ebene_1_1_">
	<path class="st0" d="M-707,354.6163c0,15.7401-12.7598,28.4999-28.4999,28.4999h-21.2413
		c-24.2705,0-47.2939-10.5303-63.167-28.8896l-139.7202-161.6158c-5.0376-5.8267-12.3447-9.1689-20.0474-9.1689h-60.3243
		c-15.7401,0-28.4999-12.7598-28.4999-28.4999v-0.0002c0-15.7401,12.7598-28.4999,28.4999-28.4999h60.3243
		c24.27,0,47.2935,10.5303,63.167,28.8901l139.7197,161.6162c5.0381,5.8262,12.3447,9.168,20.0479,9.168h21.2413
		c15.7401,0,28.4999,12.7598,28.4999,28.4999V354.6163L-707,354.6163z"/>
	<path class="st1" d="M-629.2921,138.7545l-57.4492-51.1088c-12.9009-11.4772-33.3051-2.3112-33.2935,14.9561l0.0161,23.8401
		H-754.54c-24.2705,0-47.2949,10.5303-63.167,28.8906l-139.7192,161.6148c-5.0386,5.8271-12.3452,9.1689-20.0479,9.1689h-62.3902
		c-15.7401,0-28.4999,12.7598-28.4999,28.4999v0.0002c0,15.7401,12.7598,28.4999,28.4999,28.4999h62.3903
		c24.2695,0,47.2925-10.5293,63.167-28.8906l139.7192-161.6147c5.0381-5.8271,12.3447-9.1689,20.0479-9.1689h34.5204
		l-0.0151,22.5126c-0.0116,17.2673,20.3927,26.4332,33.2936,14.956l57.449-51.1094
		C-622.4172,160.5942-622.4172,147.9614-629.2921,138.7545z"/>
	<circle class="st0" cx="-652.5" cy="354.5" r="28.5"/>
</g>
<g id="Ebene_1_2_">
	<path class="st2" d="M1255.7609,418.324c-6.1334,0-12.3236-1.8534-17.6847-5.7062c-26.0706-18.7357-47.7159-43.6358-62.597-72.0083
		c-15.3926-29.3474-23.5289-62.4777-23.5289-95.8084c0-55.1707,21.4844-107.0394,60.4969-146.051
		c39.0116-39.0116,90.8802-60.4965,146.0504-60.4965c28.4707,0,56.0594,5.6947,82.0009,16.9261
		c25.0408,10.8413,47.3948,26.3183,66.4419,46.0015c11.6556,12.0449,11.3398,31.2579-0.7051,42.9131
		c-12.0459,11.6574-31.2574,11.3394-42.9132-0.7055c-27.7301-28.6569-64.9574-44.4391-104.8246-44.4391
		c-80.4225,0-145.8514,65.4286-145.8514,145.8515c0,23.8858,5.5797,46.6353,16.5842,67.6163
		c10.5178,20.053,25.8254,37.6581,44.2666,50.9114c13.6107,9.7819,16.7151,28.745,6.9341,42.3548
		C1274.5028,413.9333,1265.1987,418.3231,1255.7609,418.324z"/>
	<path class="st0" d="M1463.8752,144.0093c5.8937,6.1604,11.2681,12.8539,15.995,19.9238
		c5.1876,7.7586,9.6421,16.0405,13.241,24.6166c7.4871,17.8448,11.2832,36.7708,11.2832,56.2513
		c0,23.7372-5.5125,46.3611-16.3851,67.2421c-10.3879,19.9539-25.5247,37.5218-43.7728,50.8035
		c-6.5441,4.7631-10.8417,11.7901-12.1016,19.7858c-1.2589,7.9948,0.6707,16.002,5.4337,22.5469
		c4.7631,6.544,11.7892,10.8417,19.7849,12.1015c8.0018,1.2598,16.0038-0.6706,22.5477-5.4337
		c25.7795-18.7631,47.172-43.5969,61.8646-71.8163C1556.9655,310.8365,1565,277.9062,1565,244.8011
		c0-26.7934-5.0153-52.8064-14.9059-77.3173c-9.6217-23.8429-23.5448-45.495-41.403-64.3904l-0.5363-0.562
		c10.3916,12.0902,9.6866,30.3321-1.9194,41.5629c-11.9556,11.57-30.9659,11.3372-42.6458-0.4429L1463.8752,144.0093z"/>
	<path class="st1" d="M1392.2891,303.3618l0.0286,0.0286l0.2671-0.5016c0.7988-1.3037,1.5134-2.6439,2.1368-4.0161l48.7827-91.6809
		c1.2114-1.7641,1.0399-4.1918-0.528-5.7597c-1.576-1.5761-4.02-1.7385-5.7864-0.5058l-90.858,48.4149
		c-4.2467,1.8096-8.2285,4.4367-11.6929,7.901c-14.505,14.505-14.5049,38.0222,0,52.5272c14.5051,14.505,38.0222,14.505,52.5272,0
		C1389.1478,307.7879,1390.8488,305.6337,1392.2891,303.3618z"/>
</g>
<g id="Ebene_1_3_">
	<path class="st0" d="M366,437H133.5c-16.5685,0-30-13.4315-30-30V215L250,74l146,141v192C396,423.5685,382.5685,437,366,437z"/>
	<g>
		<path class="st3" d="M250.25,38.3032v72.7827l182.0635,178.2983c10.2593,10.0471,26.7209,9.875,36.7678-0.3845v-0.0001
			c10.0468-10.2592,9.8746-26.7203-0.3844-36.7672L250.25,38.3032z"/>
		<path class="st1" d="M250.25,38.3032l-0.5-0.4897L30.8031,252.2324c-10.259,10.0469-10.4312,26.5081-0.3844,36.7672v0.0001
			c10.0469,10.2595,26.5085,10.4316,36.7678,0.3845L249.75,110.5962l0.5,0.4897V38.3032z"/>
	</g>
	<path class="st4" d="M299,329c0-27.062-21.938-49-49-49s-49,21.938-49,49c0,1.0083,0.04,2.0068,0.1001,3H201v105h98V332h-0.1001
		C298.96,331.0068,299,330.0083,299,329z"/>
</g>
<g id="Ebene_1_4_">
	<path class="st2" d="M1907.0825,292.0953h-199.4048c-20.4346,0-37-16.5655-37-37V94.7759c0-20.4345,16.5654-37,37-37h199.4048
		c20.4344,0,37,16.5655,37,37v160.3194C1944.0825,275.5298,1927.517,292.0953,1907.0825,292.0953z"/>
	<g>
		<path class="st5" d="M1833.5505,205.7558h-48.5175l-8.0295,23.2115h-25.6537l43.8046-121.9956h28.4487l43.807,121.9956h-25.8301
			L1833.5505,205.7558z M1809.2905,135.2466l-17.6266,50.9621h35.2559L1809.2905,135.2466z"/>
	</g>
	<path class="st2" d="M1719.4247,288.5296l77.3447-0.2445l-54.2692,54.2692c-8.5154,8.5154-23.0756,2.4845-23.0756-9.5582V288.5296
		L1719.4247,288.5296z"/>
	<path class="st6" d="M2096.3992,395.7043h-196.6855c-22.0914,0-40-17.9086-40-40V194.0144c0-22.0914,17.9086-40,40-40h196.6855
		c22.0913,0,40,17.9086,40,40v161.6898C2136.3992,377.7957,2118.4907,395.7043,2096.3992,395.7043z"/>
	<path class="st6" d="M2073.7573,392.4234l-77.3447-0.2445l54.2693,54.2692c8.5154,8.5154,23.0754,2.4845,23.0754-9.5582V392.4234z"
		/>
	<g>
		<path class="st5" d="M2056.936,345.2536c-19.4-7.5357-41.6858-20.3622-57.0775-33.8306
			c-16.1938,14.2694-35.4337,25.9734-58.3612,36.0745c-4.0081-6.4133-8.0162-12.9867-11.7041-19.4
			c25.8134-10.101,40.8848-20.0408,55.4745-32.2265c-12.8265-15.3918-24.2102-31.2643-31.7449-52.1071h-18.2786v-19.2403h52.5887
			V204.322h21.6449v20.2015h53.7113v19.2403h-17.4766c-7.3745,20.6826-17.7959,37.9979-30.944,52.749
			c15.0714,12.5051,36.3959,23.7285,53.5511,28.0571L2056.936,345.2536z M2000.179,281.4413
			c8.3367-9.299,16.1927-20.5224,22.7673-37.6775h-46.9777C1981.9012,259.3159,1991.2003,271.1801,2000.179,281.4413z"/>
	</g>
</g>
<g id="Ebene_1_5_">
	<polygon class="st6" points="827.7194,186.8269 966,186.8269 827.7194,48.5463 	"/>
	<path class="st2" d="M827.7194,48.5463H685.7015C667.641,48.5463,653,63.1872,653,81.2478v348.5045
		c0,18.0605,14.641,32.7015,32.7015,32.7015h247.597c18.0605,0,32.7015-14.641,32.7015-32.7015V186.8269h-89.221
		c-27.0948,0-49.0596-21.9647-49.0596-49.0596L827.7194,48.5463L827.7194,48.5463z"/>
	<path class="st5" d="M772.7053,182.4013h-44.1536c-7.0446,0-12.7555-5.7108-12.7555-12.7555l0,0
		c0-7.0446,5.7108-12.7555,12.7555-12.7555h44.1536c7.0447,0,12.7555,5.7108,12.7555,12.7555l0,0
		C785.4608,176.6904,779.75,182.4013,772.7053,182.4013z"/>
	<path class="st7" d="M770.2658,183.5105H728.303c-7.8885,0-14.2835-6.3949-14.2835-14.2835v-0.0002
		c0-7.8886,6.395-14.2835,14.2835-14.2835h41.9628c7.8885,0,14.2834,6.3949,14.2834,14.2835v0.0002
		C784.5493,177.1155,778.1543,183.5105,770.2658,183.5105z"/>
	<path class="st5" d="M899.598,264.534H729.8302c-7.7402,0-14.0148-6.2747-14.0148-14.0148v-0.0002
		c0-7.7402,6.2746-14.0148,14.0148-14.0148H899.598c7.7402,0,14.0148,6.2747,14.0148,14.0148v0.0002
		C913.6128,258.2593,907.3382,264.534,899.598,264.534z"/>
	<path class="st5" d="M899.598,331.2346H729.8302c-7.7402,0-14.0148-6.2747-14.0148-14.0148v-0.0002
		c0-7.7402,6.2746-14.0148,14.0148-14.0148H899.598c7.7402,0,14.0148,6.2747,14.0148,14.0148v0.0002
		C913.6128,324.9599,907.3382,331.2346,899.598,331.2346z"/>
</g>
<g id="Ebene_1_6_">
	<path class="st0" d="M2324.7207,457.5156h-5.8157c-12.7026,0-23-10.2975-23-23V61.4844c0-12.7025,10.2974-23,23-23h5.8157
		c12.7024,0,23,10.2974,23,23v373.0312C2347.7207,447.2182,2337.4231,457.5156,2324.7207,457.5156z"/>
	<path class="st0" d="M2458.7656,457.5156h-5.8157c-12.7026,0-23-10.2975-23-23V61.4844c0-12.7025,10.2974-23,23-23h5.8157
		c12.7024,0,23,10.2974,23,23v373.0312C2481.7656,447.2182,2471.4683,457.5156,2458.7656,457.5156z"/>
	<path class="st0" d="M2595.0635,457.5156h-5.8159c-12.7024,0-23-10.2975-23-23V61.4844c0-12.7025,10.2976-23,23-23h5.8159
		c12.7024,0,23,10.2974,23,23v373.0312C2618.0635,447.2182,2607.7661,457.5156,2595.0635,457.5156z"/>
	<path class="st2" d="M2342.5022,288.9868H2302.25c-16.5686,0-30-13.4315-30-30v-74.0449c0-16.5685,13.4314-30,30-30h40.2522
		c16.5684,0,30,13.4315,30,30v74.0449C2372.5022,275.5553,2359.0706,288.9868,2342.5022,288.9868z"/>
	<path class="st2" d="M2476.5469,379.101h-40.252c-16.5686,0-30-13.4315-30-30v-74.0449c0-16.5685,13.4314-30,30-30h40.252
		c16.5686,0,30,13.4315,30,30v74.0449C2506.5469,365.6696,2493.1157,379.101,2476.5469,379.101z"/>
	<path class="st2" d="M2612,226.8591h-40.2522c-16.5684,0-30-13.4315-30-30v-74.0449c0-16.5685,13.4316-30,30-30H2612
		c16.5686,0,30,13.4315,30,30v74.0449C2642,213.4276,2628.5686,226.8591,2612,226.8591z"/>
</g>
<g id="Ebene_1_7_">
	<path class="st4" d="M2820.0129,372.5739c-2.1467,9.6804,3.0032,19.5106,12.2498,23.0909
		c41.1826,15.9464,87.2261,24.8672,135.8176,24.8672c48.822,0,95.0706-9.0068,136.4019-25.0961
		c9.2339-3.5945,14.3689-13.4214,12.2161-23.0936c-20.2573-91.0123-78.998-156.8316-148.3164-156.8316
		C2899.0046,215.5108,2840.2224,281.4415,2820.0129,372.5739z"/>
	<path class="st8" d="M3116.7327,372.4958c-20.0789-90.4296-78.144-156.014-146.8433-156.9621v56.6595
		c0,0,43.9727,54.4892,62.1306,143.0405c25.3582-4.2335,49.6245-10.9186,72.3921-19.7712
		C3113.6152,391.8841,3118.8728,382.1353,3116.7327,372.4958z"/>
	<path class="st9" d="M2969.062,215.5208l0.8274,56.6724c0,0,79.7151-6.7573,122.4128,32.5247
		C3063.9517,250.7411,3019.3184,215.8337,2969.062,215.5208z"/>
	<circle class="st4" cx="2963.8594" cy="179.3305" r="92.8626"/>
	<path class="st0" d="M3190.8845,329.5851c-13.9185-45.1253-38.491-81.7803-69.0608-103.1988
		c12.0078-14.762,19.2192-33.5811,19.2195-54.0944c0.001-47.2964-38.3699-85.7389-85.666-85.8238
		c-10.1631-0.0182-19.9087,1.7441-28.9607,4.9693c4.8364,3.4578,9.425,7.3348,13.7131,11.6229
		c20.3726,20.3725,31.5923,47.4592,31.5923,76.2703c0,9.1645-1.1494,18.15-3.3535,26.8047
		c-0.3157,1.2391-0.6538,2.4711-1.0127,3.6961l-0.0723,0.2445c-0.293,0.9897-0.8242,2.6775-1.1528,3.6559
		c-0.0012,0.0041-0.0027,0.0082-0.0039,0.0123c-0.365,1.0897-0.7495,2.1722-1.1492,3.2489
		c-0.0576,0.1548-0.114,0.3101-0.1721,0.4646c-0.3796,1.0084-0.7778,2.0093-1.1877,3.0055
		c-0.0869,0.2104-0.1707,0.4219-0.2588,0.6318c-0.3899,0.9302-0.7981,1.8527-1.2141,2.7717
		c-0.1182,0.2603-0.2314,0.5225-0.3518,0.7819c-0.4009,0.8668-0.8206,1.7251-1.2454,2.5812
		c-0.1455,0.2934-0.2849,0.5898-0.4331,0.8819c-0.4299,0.8473-0.8794,1.6854-1.3325,2.5216
		c-0.1531,0.2823-0.2981,0.5685-0.4536,0.8495c-0.6106,1.1031-1.2395,2.197-1.8904,3.2796
		c6.095,5.1677,11.9702,10.8785,17.594,17.125c1.011,1.1234,2.0103,2.2662,3.002,3.4199l0,0
		c12.8596,14.9576,24.071,32.4456,33.3572,52.0576c10.0432,21.2108,17.6064,44.4229,22.4795,68.9912
		c0.417,2.1021,0.5552,4.2032,0.4797,6.2735c18.0557-9.0096,34.9316-19.4432,50.3823-31.1227
		C3190.4788,346.4075,3193.3772,337.666,3190.8845,329.5851z"/>
</g>
<g id="Ebene_1_8_">
	<polygon class="st10" points="3532.5,203.6102 3467.3635,81 3385.6604,81 3532.5,323.4245 3679.3398,81 3597.6365,81 	"/>
	<polygon class="st11" points="3679.3398,81 3532.5,323.4244 3385.6602,81 3298.2251,81 3532.5,455.8833 3766.7749,81 	"/>
</g>
<g>
	<path class="st2" d="M4259,440h-364c-22.0913,0-40-17.9086-40-40V128c0-22.0914,17.9087-40,40-40h364c22.0913,0,40,17.9086,40,40
		v272C4299,422.0914,4281.0913,440,4259,440z"/>
	<path class="st5" d="M4236.6816,356.628c0-11.5153-6.4111-17.534-16.0942-17.534c-9.813,0-16.2251,6.0187-16.2251,17.534v40.039
		h-18.3184v-40.039c0-11.5153-6.4121-17.534-16.0938-17.534c-9.9443,0-16.3564,6.0187-16.3564,17.534v40.039h-18.3184v-72.4893
		h18.3184v8.7664c4.5801-6.0187,12.2998-9.8131,21.3281-9.8131c11.2534,0,20.543,4.841,25.5151,13.8697
		c4.7109-8.2431,14.2627-13.8697,24.8613-13.8697c17.4019,0,29.7017,10.9908,29.7017,31.0103v42.5256h-18.3184V356.628z"/>
	<path class="st5" d="M3997.6299,323c18.0574,0,30.2261,9.4209,34.1514,25.646h-19.7583
		c-2.0933-6.1498-6.9343-10.0753-14.5242-10.0753c-10.2051,0-17.0095,7.7198-17.0095,21.8517s6.8044,21.7206,17.0095,21.7206
		c7.5898,0,12.2998-3.4021,14.5242-9.9442h19.7583c-3.9253,15.4396-16.094,25.646-34.1514,25.646
		c-20.9348,0-35.8523-14.6552-35.8523-37.4224S3976.6951,323,3997.6299,323z"/>
	<path class="st5" d="M4080.7146,397.8447c-20.9351,0-36.7681-14.6552-36.7681-37.4224c0-22.8983,16.3562-37.4224,37.2913-37.4224
		c20.936,0,37.2915,14.5241,37.2915,37.4224C4118.5293,383.1895,4101.7808,397.8447,4080.7146,397.8447z M4080.7146,381.8807
		c9.6831,0,18.9729-7.0654,18.9729-21.4583c0-14.5241-9.0288-21.4594-18.7107-21.4594c-9.6831,0-18.4497,6.9354-18.4497,21.4594
		C4062.5271,374.8153,4070.9014,381.8807,4080.7146,381.8807z"/>
	<path class="st6" d="M4259,88h-364c-22.0913,0-40,17.9086-40,40v63h444v-63C4299,105.9086,4281.0913,88,4259,88z"/>
	<circle class="st5" cx="3914.9456" cy="140.9454" r="17.9455"/>
	<circle class="st5" cx="3963.5" cy="140.9454" r="17.9455"/>
	<circle class="st5" cx="4014.0544" cy="140.9454" r="17.9455"/>
</g>
<g>
	<path class="st4" d="M4797.8623,150.1092h-225.5029l-25.6406-39.8859c-3.3247-5.1718-9.0518-8.298-15.1997-8.298h-92.5254
		c-19.9585,0-36.1382,16.1794-36.1382,36.1379v42.422c-0.3027,1.8807-0.5015,3.7958-0.5015,5.7618v210.6706
		c0,19.9583,16.1797,36.1379,36.1382,36.1379h359.3701c19.9585,0,36.1377-16.1796,36.1377-36.1379V186.2471
		C4834,166.2886,4817.8208,150.1092,4797.8623,150.1092z"/>
	<path class="st9" d="M4531.5186,101.9254c6.1484,0,11.8755,3.1262,15.2002,8.2979l25.6406,39.8858h118.7271l-26.4263-40.1199
		c-3.3247-5.1718-9.0527-8.298-15.2002-8.298h-119.8091c-1.3765,0-2.7329,0.0843-4.0693,0.2342H4531.5186z"/>
	<circle class="st5" cx="4766.4497" cy="232.0367" r="21.6107"/>
	<circle class="st5" cx="4766.4497" cy="290.5083" r="21.6107"/>
	<circle class="st5" cx="4766.4497" cy="351.3884" r="21.6107"/>
</g>
<g>
	<path class="st9" d="M5326.3271,441.4367h-339.6704c-12.1504,0-22-9.8497-22-22V158.0213h383.6704v261.4154
		C5348.3271,431.587,5338.4775,441.4367,5326.3271,441.4367z"/>
	<path class="st4" d="M5326.3271,441.4367h-211.0967c-12.1504,0-22-9.8497-22-22V158.0213h255.0967v261.4154
		C5348.3271,431.587,5338.4775,441.4367,5326.3271,441.4367z"/>
	<path class="st5" d="M5058.0342,404.3448h-54.7036c-4.9707,0-9-4.0294-9-9v-70.0935c0-4.9706,4.0293-9,9-9h54.7036
		c4.9702,0,9,4.0294,9,9v70.0935C5067.0342,400.3153,5063.0044,404.3448,5058.0342,404.3448z"/>
	<path class="st0" d="M5053.6484,342.9111h-44.7734c-3.8657,0-7-3.134-7-7v-2.2278c0-3.866,3.1343-7,7-7h44.7734
		c3.8662,0,7,3.134,7,7v2.2278C5060.6484,339.7771,5057.5146,342.9111,5053.6484,342.9111z"/>
	<path class="st0" d="M5031.9951,369.571h-23.1201c-3.8657,0-7-3.134-7-7v-2.2278c0-3.866,3.1343-7,7-7h23.1201
		c3.8662,0,7,3.134,7,7v2.2278C5038.9951,366.437,5035.8613,369.571,5031.9951,369.571z"/>
	<path class="st4" d="M4915.0996,88.5632h122.4053c3.9409,0,7.7114,1.6061,10.4414,4.4478l45.2842,65.0103h-128.5737
		L4915.0996,88.5632z"/>
	<path class="st9" d="M5219.8691,158.0213h128.5737L5398,88.5632h-122.4053c-3.9409,0-7.7114,1.6061-10.4414,4.4478
		L5219.8691,158.0213z"/>
	<path class="st12" d="M5310.4033,246.7548h-7.46v-16.6647c6.2002-1.6482,10.7754-7.2839,10.7754-14.0029v-21.9646
		c0-1.3733-1.1133-2.4866-2.4868-2.4866h-24.0366c-1.373,0-2.4863,1.1133-2.4863,2.4866v21.9646
		c0,6.719,4.5747,12.3547,10.7749,14.0029v16.6647h-7.4595c-2.0601,0-3.73,1.6698-3.73,3.7298s1.6699,3.7298,3.73,3.7298h22.3789
		c2.0601,0,3.73-1.6698,3.73-3.7298S5312.4634,246.7548,5310.4033,246.7548z"/>
	<path class="st12" d="M5263.1587,253.8h-41.0283c-2.0601,0-3.73-1.6698-3.73-3.7298s1.6699-3.7298,3.73-3.7298h41.0283
		c2.0601,0,3.7295,1.6698,3.7295,3.7298S5265.2188,253.8,5263.1587,253.8z"/>
	<path class="st12" d="M5232.5181,194.2266c-0.8359-2.0772-3.7769-2.0772-4.6128,0l-7.3906,18.3559
		c-0.6577,1.634,0.5449,3.4152,2.3066,3.4152h3.6606v19.1531c0,2.06,1.6694,3.7298,3.7295,3.7298s3.73-1.6699,3.73-3.7298v-19.1531
		h3.6602c1.7617,0,2.9648-1.7812,2.3071-3.4152L5232.5181,194.2266z"/>
	<path class="st12" d="M5264.7744,212.2575l-7.3906-18.3559c-0.8364-2.0772-3.7769-2.0772-4.6128,0l-7.3906,18.3559
		c-0.6577,1.6341,0.5449,3.4152,2.3066,3.4152h3.627v19.3907c0,2.06,1.6699,3.7298,3.73,3.7298s3.73-1.6699,3.73-3.7298v-19.3907
		h3.6934C5264.229,215.6727,5265.4316,213.8916,5264.7744,212.2575z"/>
	<path class="st12" d="M5205.9453,214.1988c-1.4082-11.5659-10.5098-20.4907-21.5278-20.4907s-20.1196,8.9248-21.5278,20.4907
		c-0.2021,1.6594,1.002,3.1316,2.5405,3.1316h15.6719v19.9819c0,2.5137-2.0449,4.5587-4.5586,4.5587
		c-2.0601,0-3.73,1.6698-3.73,3.7298s1.6699,3.7298,3.73,3.7298c6.6265,0,12.0181-5.3916,12.0181-12.0184v-19.9819h14.8433
		C5204.9434,217.3304,5206.1475,215.8582,5205.9453,214.1988z"/>
</g>
</svg>
