<?xml version="1.0" encoding="utf-8"?>
<!-- Generator: Adobe Illustrator 25.0.1, SVG Export Plug-In . SVG Version: 6.00 Build 0)  -->
<svg version="1.1" id="Ebene_1" xmlns="http://www.w3.org/2000/svg" xmlns:xlink="http://www.w3.org/1999/xlink" x="0px" y="0px"
	 viewBox="0 0 500 500" style="enable-background:new 0 0 500 500;" xml:space="preserve">
<style type="text/css">
	.st0{opacity:0.5;}
	.st1{opacity:0.6;}
	.st2{opacity:0.7;}
	.st3{opacity:0.79;}
</style>
<path d="M139.648,383.6055H27.6359v-61.4189H139.648c2.9488,0,5.683-1.3309,7.5021-3.6525l131.2215-167.462
	c13.5399-17.2787,33.8956-27.1888,55.847-27.1888h112.7603v61.4189H334.2186c-2.9493,0-5.6836,1.3314-7.5016,3.652
	l-131.2225,167.462C181.9547,373.6954,161.5994,383.6055,139.648,383.6055z"/>
<path class="st0" d="M462.863,383.6055H337.1162c-21.8038,0-42.3966-10.0256-55.8449-27.188L150.0482,188.9542
	c-1.819-2.3211-4.5533-3.652-7.5016-3.652H28.1654v-61.4189c0,0,114.3813,0,114.3813,0c21.9514,0,42.3067,9.91,55.846,27.1888
	l131.2231,167.462c1.819,2.3216,4.5522,3.6525,7.5005,3.6525H462.863V383.6055z"/>
<path d="M398.9353,260.5567l-41.5761-31.0471l56.1811-75.2318l-56.1811-75.2312L398.9353,48l67.7726,90.7545
	c6.8749,9.2068,6.8749,21.8397,0,31.0466L398.9353,260.5567z"/>
</svg>
