<?xml version="1.0" encoding="utf-8"?>
<!-- Generator: Adobe Illustrator 25.0.1, SVG Export Plug-In . SVG Version: 6.00 Build 0)  -->
<svg version="1.1" xmlns="http://www.w3.org/2000/svg" xmlns:xlink="http://www.w3.org/1999/xlink" x="0px" y="0px"
	 viewBox="0 0 500 500" style="enable-background:new 0 0 500 500;" xml:space="preserve">
<style type="text/css">
	.st0{opacity:0.6;}
	.st1{fill:#4D90F4;}
	.st2{opacity:0.3;fill:#939BAB;}
	.st3{fill:#F44257;}
	.st4{fill:#1765F5;}
	.st5{fill:#FFFFFF;}
	.st6{display:none;fill:#FFFFFF;}
	.st7{fill:#CC213E;}
	.st8{fill:#FFC33E;}
	.st9{fill:#35495F;}
	.st10{fill:#3FBA80;}
	.st11{fill:#3E91FF;}
	.st12{fill:#4082CE;}
	.st13{fill:#EFAB33;}
</style>
<g id="Ebene_1">
	<polygon class="st4" points="272.7194,186.8269 411,186.8269 272.7194,48.5463 	"/>
	<path class="st1" d="M272.7194,48.5463H130.7015C112.641,48.5463,98,63.1872,98,81.2478v348.5045
		c0,18.0605,14.641,32.7015,32.7015,32.7015h247.597c18.0605,0,32.7015-14.641,32.7015-32.7015V186.8269h-89.221
		c-27.0948,0-49.0596-21.9647-49.0596-49.0596V48.5463z"/>
	<path class="st5" d="M217.7053,182.4013h-44.1536c-7.0446,0-12.7555-5.7108-12.7555-12.7555v0
		c0-7.0446,5.7108-12.7555,12.7555-12.7555h44.1536c7.0447,0,12.7555,5.7108,12.7555,12.7555v0
		C230.4608,176.6904,224.75,182.4013,217.7053,182.4013z"/>
	<path class="st6" d="M215.2658,183.5105h-41.9628c-7.8885,0-14.2835-6.3949-14.2835-14.2835v-0.0002
		c0-7.8886,6.3949-14.2835,14.2835-14.2835h41.9628c7.8885,0,14.2835,6.3949,14.2835,14.2835v0.0002
		C229.5493,177.1155,223.1543,183.5105,215.2658,183.5105z"/>
	<path class="st5" d="M344.598,264.534H174.8302c-7.7402,0-14.0148-6.2747-14.0148-14.0148v-0.0002
		c0-7.7402,6.2746-14.0148,14.0148-14.0148H344.598c7.7402,0,14.0148,6.2747,14.0148,14.0148v0.0002
		C358.6128,258.2593,352.3382,264.534,344.598,264.534z"/>
	<path class="st5" d="M344.598,331.2346H174.8302c-7.7402,0-14.0148-6.2747-14.0148-14.0148v-0.0002
		c0-7.7402,6.2746-14.0148,14.0148-14.0148H344.598c7.7402,0,14.0148,6.2747,14.0148,14.0148v0.0002
		C358.6128,324.9599,352.3382,331.2346,344.598,331.2346z"/>
</g>
<g id="Layer_2">
</g>
</svg>
