<?xml version="1.0" encoding="utf-8"?>
<!-- Generator: Adobe Illustrator 25.0.1, SVG Export Plug-In . SVG Version: 6.00 Build 0)  -->
<svg version="1.1" xmlns="http://www.w3.org/2000/svg" xmlns:xlink="http://www.w3.org/1999/xlink" x="0px" y="0px"
	 viewBox="0 0 500 500" style="enable-background:new 0 0 500 500;" xml:space="preserve">
<style type="text/css">
	.st0{opacity:0.6;}
	.st1{fill:#4D90F4;}
	.st2{opacity:0.3;fill:#939BAB;}
	.st3{fill:#F44257;}
	.st4{fill:#1765F5;}
	.st5{fill:#FFFFFF;}
	.st6{display:none;fill:#FFFFFF;}
	.st7{fill:#CC213E;}
	.st8{fill:#FFC33E;}
	.st9{fill:#35495F;}
	.st10{fill:#3FBA80;}
	.st11{fill:#3E91FF;}
	.st12{fill:#4082CE;}
	.st13{fill:#EFAB33;}
</style>
<g id="Ebene_1">
	<path class="st8" d="M76.5585,379.5139c-1.1175,5.6577,1.8461,11.3602,7.1813,13.5499
		c42.82,17.5743,91.1672,27.4682,142.3405,27.4682c51.4037,0,99.9546-9.9846,142.917-27.7076
		c5.3268-2.1974,8.2806-7.8978,7.1595-13.55c-18.7603-94.5833-78.7087-163.7637-149.775-163.7637
		C155.2556,215.5108,95.2653,284.8078,76.5585,379.5139z"/>
	<path class="st13" d="M376.157,379.2745c-18.6275-93.9128-77.8632-162.7692-148.2677-163.7408v56.6595
		c0,0,43.9728,54.4892,62.1306,143.0405c27.8188-4.6443,54.3236-12.239,78.9773-22.4092
		C374.3242,390.627,377.278,384.9266,376.157,379.2745z"/>
	<circle class="st8" cx="221.8593" cy="179.3305" r="92.8626"/>
	<path class="st2" d="M450.5447,335.1853c-13.571-47.6901-38.8962-86.5012-70.7209-108.799
		c12.0081-14.7624,19.2195-33.582,19.2195-54.0959c0-47.3984-38.4241-85.8224-85.8225-85.8224
		c-10.1067,0-19.7988,1.7608-28.8042,4.9694c4.8364,3.4578,9.425,7.3348,13.7131,11.6229
		c20.3726,20.3725,31.5923,47.4592,31.5923,76.2703c0,9.1645-1.1494,18.15-3.3535,26.8047
		c-0.3157,1.2391-0.6538,2.4711-1.0127,3.6961c-0.0129,0.0437-0.0259,0.0873-0.0388,0.131
		c-0.344,1.1694-0.7092,2.3315-1.0925,3.4871c-0.0325,0.0982-0.0649,0.1965-0.0979,0.2946
		c-0.365,1.0897-0.7495,2.1722-1.1492,3.2489c-0.0574,0.1548-0.1138,0.3101-0.1721,0.4646
		c-0.3796,1.0084-0.7778,2.0093-1.1877,3.0055c-0.0869,0.2104-0.1707,0.4219-0.2588,0.6318
		c-0.3899,0.9302-0.7981,1.8527-1.2141,2.7717c-0.1182,0.2603-0.2314,0.5225-0.3518,0.7819
		c-0.4009,0.8668-0.8206,1.7251-1.2454,2.5812c-0.1455,0.2934-0.2847,0.5898-0.4331,0.8819
		c-0.4299,0.8473-0.8794,1.6854-1.3325,2.5216c-0.1531,0.2823-0.2979,0.5685-0.4536,0.8495
		c-0.6106,1.1031-1.2395,2.197-1.8904,3.2796c6.095,5.1677,11.9702,10.8785,17.594,17.125c1.0112,1.1234,2.0103,2.2662,3.002,3.4199
		l0,0c12.8596,14.9576,24.071,32.4456,33.3572,52.0576c10.0432,21.2108,17.6064,44.4229,22.4795,68.9912
		c0.417,2.1021,0.5552,4.2032,0.4797,6.2735c19.894-9.9269,38.3557-21.5825,55.0569-34.7285
		C450.2273,344.8942,451.8755,339.8614,450.5447,335.1853z"/>
</g>
<g id="Layer_2">
</g>
</svg>
