<?xml version="1.0" encoding="utf-8"?>
<!-- Generator: Adobe Illustrator 25.0.1, SVG Export Plug-In . SVG Version: 6.00 Build 0)  -->
<svg version="1.1" id="Ebene_1" xmlns="http://www.w3.org/2000/svg" xmlns:xlink="http://www.w3.org/1999/xlink" x="0px" y="0px"
	 viewBox="0 0 500 500" style="enable-background:new 0 0 500 500;" xml:space="preserve">
<style type="text/css">
	.st0{opacity:0.5;fill:#95ABBF;enable-background:new    ;}
	.st1{fill:#F44257;}
	.st2{fill:#4D90F4;}
	.st3{fill:#CC213E;}
	.st4{fill:#FFAC2F;}
	.st5{fill:#FFFFFF;}
	.st6{fill:#1765F5;}
	.st7{display:none;fill:#FFFFFF;}
	.st8{display:none;fill:#EA9126;}
	.st9{fill:#ED9726;}
	.st10{fill:#35495F;}
	.st11{fill:#3EBA70;}
	.st12{opacity:0.5;fill:#B9C0C9;enable-background:new    ;}
	.st13{fill:#C9791B;}
</style>
<g>
	<path class="st2" d="M435,440H71c-22.0914,0-40-17.9086-40-40V128c0-22.0914,17.9086-40,40-40h364c22.0914,0,40,17.9086,40,40v272
		C475,422.0914,457.0914,440,435,440z"/>
	<path class="st5" d="M412.6816,356.628c0-11.5153-6.4109-17.534-16.094-17.534c-9.8131,0-16.2251,6.0187-16.2251,17.534v40.039
		H362.044v-40.039c0-11.5153-6.412-17.534-16.094-17.534c-9.9442,0-16.3562,6.0187-16.3562,17.534v40.039h-18.3184v-72.4893h18.3184
		v8.7664c4.5799-6.0187,12.2997-9.8131,21.3283-9.8131c11.253,0,20.5428,4.841,25.5149,13.8697
		c4.711-8.2431,14.2629-13.8697,24.8616-13.8697c17.4018,0,29.7014,10.9908,29.7014,31.0103v42.5256h-18.3184V356.628z"/>
	<path class="st5" d="M173.63,323c18.0573,0,30.2259,9.4209,34.1513,25.646H188.023c-2.0933-6.1498-6.9343-10.0753-14.5241-10.0753
		c-10.2053,0-17.0096,7.7198-17.0096,21.8517s6.8043,21.7206,17.0096,21.7206c7.5898,0,12.2997-3.4021,14.5241-9.9442h19.7584
		c-3.9255,15.4396-16.094,25.646-34.1513,25.646c-20.935,0-35.8524-14.6552-35.8524-37.4224S152.695,323,173.63,323z"/>
	<path class="st5" d="M256.7145,397.8447c-20.935,0-36.7679-14.6552-36.7679-37.4224c0-22.8983,16.3562-37.4224,37.2912-37.4224
		c20.9361,0,37.2913,14.5241,37.2913,37.4224C294.5291,383.1895,277.7806,397.8447,256.7145,397.8447z M256.7145,381.8807
		c9.6831,0,18.9728-7.0654,18.9728-21.4583c0-14.5241-9.0287-21.4594-18.7106-21.4594c-9.6831,0-18.4495,6.9354-18.4495,21.4594
		C238.5272,374.8153,246.9014,381.8807,256.7145,381.8807z"/>
	<path class="st6" d="M435,88H71c-22.0913,0-40,17.9086-40,40v63h444v-63C475,105.9086,457.0913,88,435,88z"/>
	<circle class="st5" cx="90.9455" cy="140.9454" r="17.9455"/>
	<circle class="st5" cx="139.5" cy="140.9454" r="17.9455"/>
	<circle class="st5" cx="190.0546" cy="140.9454" r="17.9455"/>
</g>
</svg>
