<?xml version="1.0" encoding="utf-8"?>
<!-- Generator: Adobe Illustrator 25.0.1, SVG Export Plug-In . SVG Version: 6.00 Build 0)  -->
<svg version="1.1" xmlns="http://www.w3.org/2000/svg" xmlns:xlink="http://www.w3.org/1999/xlink" x="0px" y="0px"
	 viewBox="0 0 500 500" style="enable-background:new 0 0 500 500;" xml:space="preserve">
<style type="text/css">
	.st0{opacity:0.6;}
	.st1{fill:#4D90F4;}
	.st2{opacity:0.3;fill:#939BAB;}
	.st3{fill:#F44257;}
	.st4{fill:#1765F5;}
	.st5{fill:#FFFFFF;}
	.st6{display:none;fill:#FFFFFF;}
	.st7{fill:#CC213E;}
	.st8{fill:#FFC33E;}
	.st9{fill:#35495F;}
	.st10{fill:#3FBA80;}
	.st11{fill:#3E91FF;}
	.st12{fill:#4082CE;}
	.st13{fill:#EFAB33;}
</style>
<g id="Ebene_1">
	<path class="st1" d="M148.7609,418.324c-6.1335,0-12.3236-1.8534-17.6847-5.7062c-26.0706-18.7357-47.716-43.6358-62.5971-72.0083
		c-15.3925-29.3474-23.5289-62.4777-23.5289-95.8084c0-55.1707,21.4844-107.0394,60.4969-146.051
		c39.0116-39.0116,90.8803-60.4965,146.0505-60.4965c28.4707,0,56.0594,5.6947,82.0008,16.9261
		c25.0408,10.8413,47.3948,26.3183,66.4419,46.0015c11.6556,12.0449,11.3398,31.2579-0.7051,42.9131
		c-12.0458,11.6574-31.2574,11.3394-42.9131-0.7055c-27.7302-28.6569-64.9575-44.4391-104.8246-44.4391
		c-80.4225,0-145.8515,65.4286-145.8515,145.8515c0,23.8858,5.5797,46.6353,16.5842,67.6163
		c10.5179,20.053,25.8255,37.6581,44.2666,50.9114c13.6108,9.7819,16.7151,28.745,6.9341,42.3548
		C167.5028,413.9333,158.1987,418.3231,148.7609,418.324z"/>
	<path class="st2" d="M356.8752,144.0093c5.8937,6.1604,11.2681,12.8539,15.995,19.9238
		c5.1877,7.7586,9.6421,16.0405,13.241,24.6166c7.487,17.8448,11.2832,36.7708,11.2832,56.2513
		c0,23.7372-5.5125,46.3611-16.3851,67.2421c-10.3879,19.9539-25.5247,37.5218-43.7729,50.8035
		c-6.544,4.7631-10.8417,11.7901-12.1015,19.7858c-1.2589,7.9948,0.6706,16.002,5.4337,22.5469
		c4.7631,6.544,11.7892,10.8417,19.7849,12.1015c8.0019,1.2598,16.0038-0.6706,22.5478-5.4337
		c25.7795-18.7631,47.1719-43.5969,61.8646-71.8163C449.9654,310.8365,458,277.9062,458,244.8011
		c0-26.7934-5.0152-52.8064-14.9059-77.3173c-9.6217-23.8429-23.5448-45.495-41.4029-64.3904l-0.5363-0.562
		c10.3916,12.0902,9.6866,30.3321-1.9195,41.5629c-11.9555,11.57-30.9659,11.3372-42.6457-0.4429L356.8752,144.0093z"/>
	<path class="st3" d="M285.2891,303.3618l0.0286,0.0286l0.267-0.5016c0.7989-1.3037,1.5135-2.6439,2.1369-4.0161l48.7827-91.6809
		c1.2114-1.7641,1.0399-4.1918-0.5279-5.7597c-1.5761-1.5761-4.0201-1.7385-5.7864-0.5058l-90.858,48.4149
		c-4.2468,1.8096-8.2286,4.4367-11.6929,7.901c-14.505,14.505-14.5049,38.0222,0,52.5272c14.5051,14.505,38.0222,14.505,52.5272,0
		C282.1479,307.7879,283.8488,305.6337,285.2891,303.3618z"/>
</g>
<g id="Layer_2">
</g>
</svg>
