<?xml version="1.0" encoding="utf-8"?>
<!-- Generator: Adobe Illustrator 25.0.1, SVG Export Plug-In . SVG Version: 6.00 Build 0)  -->
<svg version="1.1" xmlns="http://www.w3.org/2000/svg" xmlns:xlink="http://www.w3.org/1999/xlink" x="0px" y="0px"
	 viewBox="0 0 500 500" style="enable-background:new 0 0 500 500;" xml:space="preserve">
<style type="text/css">
	.st0{opacity:0.6;}
	.st1{fill:#4D90F4;}
	.st2{opacity:0.3;fill:#939BAB;}
	.st3{fill:#F44257;}
	.st4{fill:#1765F5;}
	.st5{fill:#FFFFFF;}
	.st6{display:none;fill:#FFFFFF;}
	.st7{fill:#CC213E;}
	.st8{fill:#FFC33E;}
	.st9{fill:#35495F;}
	.st10{fill:#3FBA80;}
	.st11{fill:#3E91FF;}
	.st12{fill:#4082CE;}
	.st13{fill:#EFAB33;}
</style>
<g id="Ebene_1">
	<path class="st2" d="M389,354.6163c0,15.7401-12.7598,28.4999-28.4999,28.4999h-21.2413c-24.2705,0-47.2939-10.5303-63.167-28.8896
		L136.3716,192.6108c-5.0376-5.8267-12.3447-9.1689-20.0474-9.1689H55.9999c-15.7401,0-28.4999-12.7598-28.4999-28.4999v-0.0002
		c0-15.7401,12.7598-28.4999,28.4999-28.4999h60.3243c24.27,0,47.2935,10.5303,63.167,28.8901l139.7197,161.6162
		c5.0381,5.8262,12.3447,9.168,20.0479,9.168h21.2413c15.7401,0,28.4999,12.7598,28.4999,28.4999V354.6163z"/>
	<path class="st3" d="M466.7079,138.7545l-57.4492-51.1088c-12.9009-11.4772-33.3051-2.3112-33.2935,14.9561l0.0161,23.8401H341.46
		c-24.2705,0-47.2949,10.5303-63.167,28.8906L138.5737,316.9473c-5.0386,5.8271-12.3452,9.1689-20.0479,9.1689H56.1356
		c-15.7401,0-28.4999,12.7598-28.4999,28.4999v0.0002c0,15.7401,12.7598,28.4999,28.4999,28.4999h62.3903
		c24.2695,0,47.2925-10.5293,63.167-28.8906l139.7192-161.6147c5.0381-5.8271,12.3447-9.1689,20.0479-9.1689h34.5204
		l-0.0151,22.5126c-0.0116,17.2673,20.3927,26.4332,33.2936,14.956l57.449-51.1094
		C473.5828,160.5942,473.5828,147.9614,466.7079,138.7545z"/>
	<circle class="st2" cx="443.5" cy="354.5" r="28.5"/>
</g>
<g id="Layer_2">
</g>
</svg>
