<?xml version="1.0" encoding="utf-8"?>
<!-- Generator: Adobe Illustrator 25.0.1, SVG Export Plug-In . SVG Version: 6.00 Build 0)  -->
<svg version="1.1" id="Ebene_1" xmlns="http://www.w3.org/2000/svg" xmlns:xlink="http://www.w3.org/1999/xlink" x="0px" y="0px"
	 viewBox="0 0 500 500" style="enable-background:new 0 0 500 500;" xml:space="preserve">
<style type="text/css">
	.st0{opacity:0.5;fill:#95ABBF;enable-background:new    ;}
	.st1{fill:#F44257;}
	.st2{fill:#4D90F4;}
	.st3{fill:#CC213E;}
	.st4{fill:#FFAC2F;}
	.st5{fill:#FFFFFF;}
	.st6{fill:#1765F5;}
	.st7{display:none;fill:#FFFFFF;}
	.st8{display:none;fill:#EA9126;}
	.st9{fill:#ED9726;}
	.st10{fill:#35495F;}
	.st11{fill:#3EBA70;}
	.st12{opacity:0.5;fill:#B9C0C9;enable-background:new    ;}
	.st13{fill:#C9791B;}
</style>
<g id="Ebene_1_3_">
	<path class="st0" d="M366,437H133.5c-16.5685,0-30-13.4315-30-30V215L250,74l146,141v192C396,423.5685,382.5685,437,366,437z"/>
	<g>
		<path class="st3" d="M250.25,38.3032v72.7827l182.0635,178.2983c10.2593,10.0471,26.7209,9.875,36.7678-0.3845v-0.0001
			c10.0468-10.2592,9.8746-26.7203-0.3844-36.7672L250.25,38.3032z"/>
		<path class="st1" d="M250.25,38.3032l-0.5-0.4897L30.8031,252.2324c-10.259,10.0469-10.4312,26.5081-0.3844,36.7672v0.0001
			c10.0469,10.2595,26.5085,10.4316,36.7678,0.3845L249.75,110.5962l0.5,0.4897V38.3032z"/>
	</g>
	<path class="st4" d="M299,329c0-27.062-21.938-49-49-49s-49,21.938-49,49c0,1.0083,0.04,2.0068,0.1001,3H201v105h98V332h-0.1001
		C298.96,331.0068,299,330.0083,299,329z"/>
</g>
</svg>
