<?xml version="1.0" encoding="utf-8"?>
<!-- Generator: Adobe Illustrator 25.0.1, SVG Export Plug-In . SVG Version: 6.00 Build 0)  -->
<svg version="1.1" id="Ebene_1" xmlns="http://www.w3.org/2000/svg" xmlns:xlink="http://www.w3.org/1999/xlink" x="0px" y="0px"
	 viewBox="0 0 500 500" style="enable-background:new 0 0 500 500;" xml:space="preserve">
<style type="text/css">
	.st0{opacity:0.5;}
	.st1{opacity:0.6;}
	.st2{opacity:0.7;}
	.st3{opacity:0.79;}
</style>
<path d="M251,489c-33.6357,0-61-26.3359-61-63.624V280h42v145.376c0,13.8896,8.7012,21.624,19,21.624s19-7.7344,19-21.624V280h42
	v145.376C312,462.6641,284.6357,489,251,489z"/>
<path d="M430.5,297.5h-362v-100h362V297.5z M103.5,262.5h292v-30h-292V262.5z"/>
<path class="st1" d="M100,57v158h40V67c0-5.5228,4.4772-10,10-10h85l0,49.4966c0,11.3866,8.854,21.0847,20.2334,21.4898
	C267.1805,128.4116,277,118.8527,277,107V57h20v87.4966c0,11.3866,8.854,21.0847,20.2334,21.4897
	C329.1805,166.4116,339,156.8527,339,145V57h10c5.5229,0,10,4.4772,10,10v148h40V57c0-22.0914-17.9086-40-40-40H140
	C117.9086,17,100,34.9086,100,57z"/>
</svg>
