<?xml version="1.0" encoding="utf-8"?>
<!-- Generator: Adobe Illustrator 25.0.1, SVG Export Plug-In . SVG Version: 6.00 Build 0)  -->
<svg version="1.1" id="Ebene_1" xmlns="http://www.w3.org/2000/svg" xmlns:xlink="http://www.w3.org/1999/xlink" x="0px" y="0px"
	 viewBox="0 0 500 500" style="enable-background:new 0 0 500 500;" xml:space="preserve">
<style type="text/css">
	.st0{opacity:0.5;fill:#95ABBF;enable-background:new    ;}
	.st1{fill:#F44257;}
	.st2{fill:#4D90F4;}
	.st3{fill:#CC213E;}
	.st4{fill:#FFAC2F;}
	.st5{fill:#FFFFFF;}
	.st6{fill:#1765F5;}
	.st7{display:none;fill:#FFFFFF;}
	.st8{display:none;fill:#EA9126;}
	.st9{fill:#ED9726;}
	.st10{fill:#35495F;}
	.st11{fill:#3EBA70;}
	.st12{opacity:0.5;fill:#B9C0C9;enable-background:new    ;}
	.st13{fill:#C9791B;}
</style>
<g>
	<path class="st9" d="M409.2075,431.2064H91.7834c-12.1503,0-22-9.8497-22-22V164.2243h361.4241v244.9822
		C431.2075,421.3567,421.3577,431.2064,409.2075,431.2064z"/>
	<path class="st4" d="M409.2075,431.2064H212.9018c-12.1503,0-22-9.8497-22-22V164.2243h240.3057v244.9822
		C431.2075,421.3567,421.3577,431.2064,409.2075,431.2064z"/>
	<path class="st5" d="M157.2245,396.2651h-50.488c-4.9706,0-9-4.0294-9-9v-64.9856c0-4.9706,4.0294-9,9-9h50.488
		c4.9706,0,9,4.0294,9,9v64.9856C166.2245,392.2357,162.195,396.2651,157.2245,396.2651z"/>
	<path class="st12" d="M153.2092,338.3936h-41.3655c-3.866,0-7-3.134-7-7v-1.2868c0-3.866,3.134-7,7-7h41.3655c3.866,0,7,3.134,7,7
		v1.2868C160.2092,335.2596,157.0751,338.3936,153.2092,338.3936z"/>
	<path class="st12" d="M132.8113,363.5077h-20.9677c-3.866,0-7-3.134-7-7v-1.2868c0-3.866,3.134-7,7-7h20.9677c3.866,0,7,3.134,7,7
		v1.2868C139.8113,360.3737,136.6773,363.5077,132.8113,363.5077z"/>
	<path class="st4" d="M23.0996,98.7936h115.308c3.7122,0,7.2641,1.513,9.836,4.1899l42.6582,61.2408H69.7834L23.0996,98.7936z"/>
	<path class="st9" d="M310.1978,164.2243h121.1184L478,98.7936H362.692c-3.7122,0-7.2641,1.513-9.836,4.1899L310.1978,164.2243z"/>
	<path class="st13" d="M395.4824,247.8127h-7.0272v-15.6984c5.8407-1.5526,10.1503-6.8616,10.1503-13.191v-20.6911
		c0-1.2937-1.0488-2.3424-2.3424-2.3424h-22.6431c-1.2936,0-2.3424,1.0487-2.3424,2.3424v20.6911
		c0,6.3294,4.3096,11.6383,10.1503,13.191v15.6984h-7.0272c-1.9406,0-3.5136,1.573-3.5136,3.5136s1.573,3.5136,3.5136,3.5136
		h21.0815c1.9406,0,3.5136-1.573,3.5136-3.5136S397.4229,247.8127,395.4824,247.8127z"/>
	<path class="st13" d="M350.9771,254.4494h-38.6494c-1.9406,0-3.5136-1.573-3.5136-3.5136s1.573-3.5136,3.5136-3.5136h38.6494
		c1.9406,0,3.5136,1.573,3.5136,3.5136S352.9176,254.4494,350.9771,254.4494z"/>
	<path class="st13" d="M322.1132,198.3302c-0.7877-1.9568-3.5578-1.9568-4.3455,0l-6.9619,17.2916
		c-0.6195,1.5393,0.5135,3.2172,2.1731,3.2172h3.448v18.0425c0,1.9406,1.573,3.5136,3.5136,3.5136s3.5136-1.573,3.5136-3.5136
		V218.839h3.448c1.6596,0,2.7927-1.6779,2.1731-3.2172L322.1132,198.3302z"/>
	<path class="st13" d="M352.499,215.3157l-6.962-17.2916c-0.7877-1.9568-3.5578-1.9568-4.3455,0l-6.962,17.2916
		c-0.6195,1.5393,0.5135,3.2172,2.1731,3.2172h3.4167v18.2663c0,1.9406,1.573,3.5136,3.5136,3.5136s3.5135-1.573,3.5135-3.5136
		v-18.2663h3.4793C351.9855,218.5329,353.1185,216.855,352.499,215.3157z"/>
	<path class="st13" d="M297.0812,217.1444c-1.3267-10.8953-9.9006-19.3026-20.2797-19.3026s-18.953,8.4073-20.2797,19.3026
		c-0.1902,1.5632,0.944,2.95,2.3935,2.95h14.7631v18.8233c0,2.3679-1.9261,4.2944-4.2944,4.2944
		c-1.9406,0-3.5136,1.573-3.5136,3.5136s1.573,3.5136,3.5136,3.5136c6.2425,0,11.3215-5.079,11.3215-11.3215v-18.8233h13.9823
		C296.1373,220.0945,297.2715,218.7076,297.0812,217.1444z"/>
</g>
</svg>
