<?xml version="1.0" encoding="utf-8"?>
<!-- Generator: Adobe Illustrator 25.0.1, SVG Export Plug-In . SVG Version: 6.00 Build 0)  -->
<svg version="1.1" id="Ebene_1" xmlns="http://www.w3.org/2000/svg" xmlns:xlink="http://www.w3.org/1999/xlink" x="0px" y="0px"
	 viewBox="0 0 500 500" style="enable-background:new 0 0 500 500;" xml:space="preserve">
<style type="text/css">
	.st0{opacity:0.5;}
	.st1{opacity:0.6;}
	.st2{opacity:0.7;}
	.st3{opacity:0.79;}
</style>
<path class="st1" d="M382.7871,477H134.2129c-29.2246,0-53-23.7754-53-53V85c0-29.2241,23.7754-53,53-53h191.5156l110.0586,110.0591
	V424C435.7871,453.2246,412.0117,477,382.7871,477z M134.2129,78c-3.8594,0-7,3.1401-7,7v339c0,3.8594,3.1406,7,7,7h248.5742
	c3.8594,0,7-3.1406,7-7V161.1128L306.6738,78H134.2129z"/>
<path d="M226.2861,196.4214h-40.6914c-13.8066,0-25-11.1929-25-25s11.1934-25,25-25h40.6914c13.8066,0,25,11.1929,25,25
	S240.0928,196.4214,226.2861,196.4214z"/>
<path d="M320.1025,276.6758H185.5947c-13.8066,0-25-11.1924-25-25c0-13.8071,11.1934-25,25-25h134.5078c13.8066,0,25,11.1929,25,25
	C345.1025,265.4834,333.9092,276.6758,320.1025,276.6758z"/>
<path class="st3" d="M324.6095,397h-40.6914c-13.8066,0-25-11.1929-25-25s11.1934-25,25-25h40.6914c13.8066,0,25,11.1929,25,25
	S338.4161,397,324.6095,397z"/>
</svg>
