<?xml version="1.0" encoding="utf-8"?>
<!-- Generator: Adobe Illustrator 25.2.0, SVG Export Plug-In . SVG Version: 6.00 Build 0)  -->
<svg version="1.1" id="Layer_1" xmlns="http://www.w3.org/2000/svg" xmlns:xlink="http://www.w3.org/1999/xlink" x="0px" y="0px"
	 viewBox="0 0 82.3 15.9" style="enable-background:new 0 0 82.3 15.9;" xml:space="preserve">
<style type="text/css">
	.st0{fill:#FFFFFF;}
</style>
<polygon class="st0" points="16.6,15.1 11.3,7.9 16.6,0.6 11.5,0.6 6.2,7.9 11.5,15.1 "/>
<rect x="0.7" y="0.6" class="st0" width="4.4" height="14.5"/>
<polygon class="st0" points="30.1,0.6 27.3,4.4 24.5,0.6 19.5,0.6 24.8,7.9 19.5,15.1 24.5,15.1 29.9,7.9 29.9,7.9 35.2,0.6 "/>
<path class="st0" d="M42.8,4.2c2.1,0,3.8,1.7,3.8,3.8c0,2.1-1.7,3.8-3.8,3.8S39,10.1,39,8C39,5.9,40.7,4.2,42.8,4.2 M42.8,0.4
	c-4.2,0-7.6,3.4-7.6,7.6s3.4,7.6,7.6,7.6s7.6-3.4,7.6-7.6S47,0.4,42.8,0.4L42.8,0.4z"/>
<polygon class="st0" points="65.1,0.6 60.6,0.6 56.2,0.6 51.7,0.6 51.7,4.3 56.2,4.3 56.2,15.1 60.6,15.1 60.6,4.3 65.1,4.3 "/>
<path class="st0" d="M74,4.2c2.1,0,3.8,1.7,3.8,3.8c0,2.1-1.7,3.8-3.8,3.8c-2.1,0-3.8-1.7-3.8-3.8C70.2,5.9,71.9,4.2,74,4.2 M74,0.4
	c-4.2,0-7.6,3.4-7.6,7.6s3.4,7.6,7.6,7.6s7.6-3.4,7.6-7.6S78.2,0.4,74,0.4L74,0.4z"/>
</svg>
