<svg xmlns="http://www.w3.org/2000/svg" width="150" height="75.558" viewBox="0 0 150 75.558"><g transform="translate(-373.937 -187.148)"><g transform="translate(373.937 187.149)"><path d="M439.925,196.222V203.2H421.086v-6.981Z" transform="translate(-396 -191.394)" fill="#4b5bd8" fill-rule="evenodd"/><path d="M376.558,262.707h14.794l26.562-23.363V226.335l-17.576,15.457L388.1,229.551,401.859,217.4V204.359L383.71,220.387V187.149h-9.773v42.063l19.048,19.048Z" transform="translate(-373.937 -187.149)" fill="#101727" fill-rule="evenodd"/></g><g transform="translate(451.235 213.414)"><path d="M535.777,259.294h-5.725l-6.159-7.026v7.026h-4.674V236.515h4.674V250.35l5.88-6.716h5.6l-6.654,7.521Z" transform="translate(-519.219 -236.515)" fill="#101727"/><path d="M552.552,265.528V249.836h4.674v15.692Z" transform="translate(-534.817 -242.749)" fill="#101727"/><path d="M570.92,264.431a6.831,6.831,0,0,1-2.878-2.848,9.838,9.838,0,0,1,0-8.666,6.836,6.836,0,0,1,2.878-2.847,9.236,9.236,0,0,1,4.38-.991,9.075,9.075,0,0,1,4.333.991,6.858,6.858,0,0,1,2.862,2.847,9.833,9.833,0,0,1,0,8.666,6.854,6.854,0,0,1-2.862,2.848,9.068,9.068,0,0,1-4.333.991A9.23,9.23,0,0,1,570.92,264.431Zm7.026-3.714a7.007,7.007,0,0,0,0-6.917,3.166,3.166,0,0,0-2.646-1.16,3.245,3.245,0,0,0-2.693,1.16,5.442,5.442,0,0,0-.929,3.451q0,4.611,3.622,4.611A3.183,3.183,0,0,0,577.946,260.717Z" transform="translate(-541.595 -242.395)" fill="#101727"/><path d="M628.8,264.431a6.832,6.832,0,0,1-2.878-2.848,9.834,9.834,0,0,1,0-8.666,6.836,6.836,0,0,1,2.878-2.847,9.236,9.236,0,0,1,4.379-.991,9.076,9.076,0,0,1,4.334.991,6.866,6.866,0,0,1,2.863,2.847,9.838,9.838,0,0,1,0,8.666,6.862,6.862,0,0,1-2.863,2.848,9.07,9.07,0,0,1-4.334.991A9.23,9.23,0,0,1,628.8,264.431Zm7.026-3.714a7.008,7.008,0,0,0,0-6.917,3.167,3.167,0,0,0-2.646-1.16,3.244,3.244,0,0,0-2.692,1.16,5.443,5.443,0,0,0-.928,3.451q0,4.611,3.621,4.611A3.183,3.183,0,0,0,635.826,260.717Z" transform="translate(-568.68 -242.395)" fill="#101727"/><path d="M552.552,240.039v-3.2h4.674v3.2Z" transform="translate(-534.817 -236.665)" fill="#101727"/><path d="M611.2,249.131v-3.5h-3.538v-4.778h-4.674v4.778H600.02v3.5h2.971v6.19a6.5,6.5,0,0,0,1.532,4.611,5.778,5.778,0,0,0,4.441,1.641,7.451,7.451,0,0,0,2.693-.433v-3.622a6.442,6.442,0,0,1-1.547.217,2.565,2.565,0,0,1-1.765-.6,2.422,2.422,0,0,1-.68-1.9v-6.1Z" transform="translate(-557.03 -238.546)" fill="#101727"/></g></g></svg>