<svg xmlns="http://www.w3.org/2000/svg" width="102.711" height="26.098" viewBox="0 0 102.711 26.098"><g transform="translate(-624.243 -309.055)"><g transform="translate(-467.596 131.516)"><g transform="translate(1091.839 177.539)"><path d="M1197.31,203.292h-5.326l-2.91,2.171-2.91-2.171h-5.326v4.819h16.471Z" transform="translate(-1180.839 -192.806)" fill="#fff"/><path d="M1180.839,226.946l8.236-6.027,8.235,6.027v-5.8l-8.235-6.027-8.236,6.027Z" transform="translate(-1180.839 -200.848)" fill="#fff"/><path d="M1190.115,170.539V176.3l5.266,3.853,5.265-3.853v-5.761h-.024l-5.242,3.836-5.242-3.836Z" transform="translate(-1187.145 -170.539)" fill="#fff"/></g></g><g transform="translate(-612.25 121.048)"><path d="M1291.948,207.415l-4.489-6.134,4.489-6.134h-4.318l-4.489,6.134,4.489,6.134Z" transform="translate(-8.289 -0.329)" fill="#fff"/><rect width="3.706" height="12.267" transform="translate(1270.25 194.819)" fill="#fff"/><path d="M1333.446,201.282l4.488-6.134h-4.267l-4.489,6.134" transform="translate(-37.889 -0.329)" fill="#fff"/><path d="M1317.683,202.174l-5.371-7.026h4.267l5.336,6.98" transform="translate(-27.044 -0.329)" fill="#fff"/><path d="M1360.007,197.849a3.207,3.207,0,1,1-3.207,3.207,3.21,3.21,0,0,1,3.207-3.207m0-3.213a6.42,6.42,0,1,0,6.42,6.42,6.42,6.42,0,0,0-6.42-6.42Z" transform="translate(-53.582)" fill="#fff"/><rect width="3.706" height="12.267" transform="translate(1317.751 194.819)" fill="#fff"/><rect width="11.315" height="3.128" transform="translate(1313.946 194.819)" fill="#fff"/><path d="M1433.833,197.849a3.207,3.207,0,1,1-3.207,3.207,3.21,3.21,0,0,1,3.207-3.207m0-3.213a6.42,6.42,0,1,0,6.42,6.42,6.42,6.42,0,0,0-6.42-6.42Z" transform="translate(-101.05)" fill="#fff"/><path d="M1325.354,212.328l-4.488,6.134H1316.6l4.489-6.134" transform="translate(-29.8 -11.375)" fill="#fff"/></g></g></svg>