<?xml version="1.0" encoding="utf-8"?>
<!-- Generator: Adobe Illustrator 25.0.1, SVG Export Plug-In . SVG Version: 6.00 Build 0)  -->
<svg version="1.1" id="Ebene_1" xmlns="http://www.w3.org/2000/svg" xmlns:xlink="http://www.w3.org/1999/xlink" x="0px" y="0px"
	 viewBox="0 0 500 500" style="enable-background:new 0 0 500 500;" xml:space="preserve">
<style type="text/css">
	.st0{fill:#1765F5;}
	.st1{fill:#4D90F4;}
	.st2{display:none;fill:#FFFFFF;}
	.st3{fill:#FFAC2F;}
	.st4{fill:#ED9726;}
	.st5{fill:#FFFFFF;}
</style>
<g id="Ebene_1_5_">
	<polygon class="st0" points="272.7194,186.8269 411,186.8269 272.7194,48.5463 	"/>
	<path class="st1" d="M272.7194,48.5463H130.7015C112.641,48.5463,98,63.1872,98,81.2478v348.5045
		c0,18.0605,14.641,32.7015,32.7015,32.7015h247.597c18.0605,0,32.7015-14.641,32.7015-32.7015V186.8269h-89.221
		c-27.0948,0-49.0596-21.9647-49.0596-49.0596L272.7194,48.5463L272.7194,48.5463z"/>
	<path class="st2" d="M215.2658,183.5105H173.303c-7.8885,0-14.2835-6.3949-14.2835-14.2835v-0.0002
		c0-7.8886,6.3949-14.2835,14.2835-14.2835h41.9628c7.8885,0,14.2835,6.3949,14.2835,14.2835v0.0002
		C229.5493,177.1155,223.1543,183.5105,215.2658,183.5105z"/>
</g>
</svg>
