<?xml version="1.0" encoding="utf-8"?>
<!-- Generator: Adobe Illustrator 25.0.1, SVG Export Plug-In . SVG Version: 6.00 Build 0)  -->
<svg version="1.1" id="Layer_1" xmlns="http://www.w3.org/2000/svg" xmlns:xlink="http://www.w3.org/1999/xlink" x="0px" y="0px"
	 viewBox="0 0 400 400" style="enable-background:new 0 0 400 400;" xml:space="preserve">
<style type="text/css">
	.st0{fill:#1F2639;}
	.st1{fill:#232D44;}
	.st2{display:none;fill:#1F2639;}
	.st3{fill:#FFFFFF;}
	.st4{fill:#4D90F4;}
</style>
<path class="st4" d="M211.0293,270.1091l-31.3712-38.6409c-2.4012-2.9576-6.9151-2.9576-9.3163,0l-31.3712,38.6409
	c-1.5918,1.9608-0.1965,4.8909,2.3291,4.8909H159v43c0,3.866,3.134,7,7,7h18c3.866,0,7-3.134,7-7v-43h17.7002
	C211.2258,275,212.6211,272.0698,211.0293,270.1091z"/>
<path class="st4" d="M273.7408,296.3073l-21.5421-26.5341c-1.6488-2.031-4.7485-2.031-6.3973,0l-21.5421,26.5341
	c-1.0931,1.3464-0.1349,3.3585,1.5994,3.3585h12.1544v29.5274c0,2.6547,2.1521,4.8068,4.8068,4.8068h12.3603
	c2.6547,0,4.8068-2.1521,4.8068-4.8068v-29.5274h12.1544C273.8757,299.6658,274.8338,297.6537,273.7408,296.3073z"/>
</svg>
