<?xml version="1.0" standalone="no"?>
<!DOCTYPE svg PUBLIC "-//W3C//DTD SVG 20010904//EN"
 "http://www.w3.org/TR/2001/REC-SVG-20010904/DTD/svg10.dtd">
<svg version="1.0" xmlns="http://www.w3.org/2000/svg"
 width="1200.000000pt" height="1200.000000pt" viewBox="0 0 1200.000000 1200.000000"
 preserveAspectRatio="xMidYMid meet">
<metadata>
Created by potrace 1.14, written by Peter Selinger 2001-2017
</metadata>
<g transform="translate(0.000000,1200.000000) scale(0.100000,-0.100000)"
fill="#000000" stroke="none">
<path d="M0 6000 l0 -6000 6000 0 6000 0 0 6000 0 6000 -6000 0 -6000 0 0
-6000z m5085 3720 l915 -670 896 655 c493 361 907 663 920 672 l24 15 0 -1008
-1 -1009 -919 -673 -920 -672 -919 672 -920 673 -1 1008 c0 554 2 1007 5 1007
2 0 416 -302 920 -670z m408 -3070 l507 -380 509 380 509 380 931 0 931 0 -2
-842 -3 -843 -1183 -5 -1183 -5 1186 -868 1185 -868 0 -1010 c0 -555 -2 -1009
-4 -1009 -3 0 -651 472 -1440 1050 l-1436 1050 -1435 -1050 c-789 -578 -1438
-1050 -1440 -1050 -3 0 -5 454 -5 1009 l0 1009 1186 869 1186 868 -1184 5
-1183 5 -3 843 -2 842 932 0 933 -1 508 -379z"/>
</g>
</svg>
