<svg version="1" xmlns="http://www.w3.org/2000/svg" width="682.667" height="682.667" viewBox="0 0 512.000000 512.000000"><path d="M236.8 4.5c-.1.1-3.6.6-7.6.9-4 .4-7.8.9-8.5 1.1-.6.2-3 .6-5.2.9-19.1 2.2-48.6 11.7-71.5 23-39.2 19.4-71.6 47.8-97.1 85.1-5 7.3-7 10.7-15.2 25.7-5.6 10.2-16.5 37.8-18.2 45.8l-2 8c-1.8 6.9-2 7.9-2.9 13.1-.3 1.9-.8 4.7-1.2 6.4-2.1 11-3.1 27.2-2.9 46 .2 11.5.6 22.1.9 23.5.3 1.4.9 5.2 1.2 8.5.4 3.3.8 6.3 1 6.6.2.4.6 2.4 1 4.5 1 7 5.3 23 9.2 34.5C36.7 393.5 75.3 441.3 126 471.7c10.7 6.5 16.3 9.4 30 15.6 9.9 4.6 30.9 11.6 39 13.2.8.2 3.3.8 5.5 1.3 2.2.6 5.6 1.3 7.5 1.6 1.9.3 4.6.8 6 1 3.4.6 9.9 1.7 13.5 2.2 6.4.9 45.4 1.1 52 .3 6.6-.8 9.4-1.1 19-2.5 2.2-.3 5.6-.9 7.5-1.4 1.9-.5 4.6-1.1 6-1.4 18.9-3.3 49.5-15.4 71-28 10.3-6 27.1-17.6 30-20.6.3-.3 2.8-2.3 5.5-4.5 5.1-4 22.4-21 28.3-27.8 6.2-7.1 19.1-24.8 24.1-33.1 12.4-20.5 24.7-49.1 28.7-66.9.4-1.7.8-3.5 2-7.9 1.4-5.7 4.4-24.1 5.1-31.3 1.5-15.1.7-54.4-1.2-61.5-.2-.8-.6-3.3-1-5.4-.3-2.1-.7-4.8-1-6-.3-1.2-.7-3.2-.9-4.6-1.5-9-10-36.7-13.2-42.8-.7-1.5-1.4-3-1.4-3.5 0-4-21.1-41.2-28.7-50.7-.6-.8-4.2-5.3-7.9-9.8-26.7-33.5-65.4-61.4-106.1-76.8-19.2-7.2-34.5-11.2-54.8-14-2.7-.3-5.9-.9-7-1.1-2.3-.5-46.1-1.3-46.7-.8z"/></svg>